<?xml version="1.0" encoding="UTF-8" standalone="no"?>
<svg
   xmlns:osb="http://www.openswatchbook.org/uri/2009/osb"
   xmlns:dc="http://purl.org/dc/elements/1.1/"
   xmlns:cc="http://creativecommons.org/ns#"
   xmlns:rdf="http://www.w3.org/1999/02/22-rdf-syntax-ns#"
   xmlns:svg="http://www.w3.org/2000/svg"
   xmlns="http://www.w3.org/2000/svg"
   xmlns:xlink="http://www.w3.org/1999/xlink"
   version="1.1"
   id="Layer_2"
   x="0px"
   y="0px"
   width="400.66699"
   height="400.66599"
   viewBox="0 0 400.667 400.666"
   enable-background="new 0 0 400.667 400.666"
   xml:space="preserve"><metadata
     id="metadata111"><rdf:RDF><cc:Work
         rdf:about=""><dc:format>image/svg+xml</dc:format><dc:type
           rdf:resource="http://purl.org/dc/dcmitype/StillImage" /><dc:title></dc:title></cc:Work></rdf:RDF></metadata><defs
     id="defs109"><linearGradient
       id="linearGradient5786"
       osb:paint="gradient"><stop
         style="stop-color:#363636;stop-opacity:1;"
         offset="0"
         id="stop5788" /><stop
         style="stop-color:#000000;stop-opacity:1;"
         offset="1"
         id="stop5790" /></linearGradient><filter
       style="color-interpolation-filters:sRGB"
       id="filter13201"
       x="-0.03714836"
       width="1.0742967"
       y="-0.03492051"
       height="1.069841"><feGaussianBlur
         stdDeviation="2.2541439"
         id="feGaussianBlur13203" /></filter><radialGradient
       xlink:href="#linearGradient8111"
       id="radialGradient8117"
       cx="932.32538"
       cy="-199.47165"
       fx="932.32538"
       fy="-199.47165"
       r="73.063492"
       gradientTransform="matrix(-0.29976447,1.1384473,-1.6336667,-0.43016067,702.93482,-1333.0849)"
       gradientUnits="userSpaceOnUse" /><linearGradient
       id="linearGradient8111"><stop
         style="stop-color:#232323;stop-opacity:1"
         offset="0"
         id="stop8113" /><stop
         style="stop-color:#191919;stop-opacity:1"
         offset="1"
         id="stop8115" /></linearGradient></defs><g
     transform="matrix(1.110673,0,0,1.110673,-676.18489,355.63469)"
     style="display:inline"
     id="g9035"><path
       style="display:inline;opacity:1;fill:#000000;fill-opacity:1;stroke:none;stroke-width:0.49618229;stroke-linecap:butt;stroke-linejoin:round;stroke-miterlimit:4;stroke-dasharray:none;stroke-opacity:1;filter:url(#filter13201)"
       d="m 778.40569,-177.34454 c -0.3695,0 -1.7849,-0.38284 -2.594,-2.37432 l -10.6279,-29.03764 c -29.1269,10.23713 -48.6319,37.72953 -48.6717,68.603 5e-4,40.2146 32.6008,72.81483 72.8154,72.81541 40.2146,-5.8e-4 72.8149,-32.60081 72.8154,-72.81541 -0.036,-30.87502 -19.5406,-58.37048 -48.6685,-68.60947 l -10.6311,29.04411 c -0.8091,1.99148 -2.2245,2.37432 -2.594,2.37432 -10.92229,0 -10.92229,0 -21.8436,0 z m 21.6337,70.26663 0.5362,1.65072 -30.2717,30.27163 c -0.6226,-0.16027 -1.243,-0.3293 -1.8607,-0.50716 l 4.1866,-12.92787 16.7526,-16.75262 c 3.621,-0.0205 7.2165,-0.6057 10.657,-1.7347 z m -21.4303,0.0227 c 2.2482,0.7265 4.5644,1.22221 6.913,1.47952 l -10.9315,10.93151 z m 22.9647,4.72278 2.7199,8.39246 -21.2848,21.2848 c -3.198,-0.31519 -6.3696,-0.85711 -9.4908,-1.62164 z m 3.7213,11.48391 2.7168,8.39246 -9.4457,9.44555 c -3.0593,0.45356 -6.1462,0.69747 -9.2387,0.73005 -0.8288,-0.0237 -1.6569,-0.0624 -2.4842,-0.11627 z m 3.7181,11.4839 1.2115,3.74398 c -2.2161,0.71181 -4.4675,1.30913 -6.7451,1.78961 z"
       id="path13183" /><path
       id="path11953"
       d="m 778.40569,-177.34454 c -0.3695,0 -1.7849,-0.38284 -2.594,-2.37432 l -10.6279,-29.03764 c -29.1269,10.23713 -48.6319,37.72953 -48.6717,68.603 5e-4,40.2146 32.6008,72.81483 72.8154,72.81541 40.2146,-5.8e-4 72.8149,-32.60081 72.8154,-72.81541 -0.036,-30.87502 -19.5406,-58.37048 -48.6685,-68.60947 l -10.6311,29.04411 c -0.8091,1.99148 -2.2245,2.37432 -2.594,2.37432 -10.92229,0 -10.92229,0 -21.8436,0 z m 21.6337,70.26663 0.5362,1.65072 -30.2717,30.27163 c -0.6226,-0.16027 -1.243,-0.3293 -1.8607,-0.50716 l 4.1866,-12.92787 16.7526,-16.75262 c 3.621,-0.0205 7.2165,-0.6057 10.657,-1.7347 z m -21.4303,0.0227 c 2.2482,0.7265 4.5644,1.22221 6.913,1.47952 l -10.9315,10.93151 z m 22.9647,4.72278 2.7199,8.39246 -21.2848,21.2848 c -3.198,-0.31519 -6.3696,-0.85711 -9.4908,-1.62164 z m 3.7213,11.48391 2.7168,8.39246 -9.4457,9.44555 c -3.0593,0.45356 -6.1462,0.69747 -9.2387,0.73005 -0.8288,-0.0237 -1.6569,-0.0624 -2.4842,-0.11627 z m 3.7181,11.4839 1.2115,3.74398 c -2.2161,0.71181 -4.4675,1.30913 -6.7451,1.78961 z"
       style="display:inline;opacity:1;fill:url(#radialGradient8117);fill-opacity:1;stroke:#2d2d2d;stroke-width:0.60000002;stroke-linecap:butt;stroke-linejoin:round;stroke-miterlimit:4;stroke-dasharray:none;stroke-opacity:1" /><g
       transform="matrix(1.8621012,0,0,1.8621012,-707.30585,214.68811)"
       id="g12455"><path
         id="path12269"
         style="font-style:normal;font-variant:normal;font-weight:normal;font-stretch:normal;font-size:medium;line-height:125%;font-family:arial;-inkscape-font-specification:arial;letter-spacing:-1.14999998px;word-spacing:0px;fill:#ffffff;fill-opacity:1;stroke:none;stroke-width:1px;stroke-linecap:butt;stroke-linejoin:miter;stroke-opacity:1"
         d="m 772.97157,-204.33591 3.44466,-8.96959 1.27874,0 3.67105,8.96959 -1.35217,0 -1.04625,-2.71657 -3.75058,0 -0.98507,2.71657 -1.26038,0 z m 2.58808,-3.68328 3.04085,0 -0.93612,-2.48407 q -0.42828,-1.13191 -0.63631,-1.86 -0.17132,0.86269 -0.48336,1.71315 l -0.98506,2.63092 z" /><path
         id="path12271"
         style="font-style:normal;font-variant:normal;font-weight:normal;font-stretch:normal;font-size:medium;line-height:125%;font-family:arial;-inkscape-font-specification:arial;letter-spacing:-1.14999998px;word-spacing:0px;fill:#ffffff;fill-opacity:1;stroke:none;stroke-width:1px;stroke-linecap:butt;stroke-linejoin:miter;stroke-opacity:1"
         d="m 781.6542,-204.33591 0,-8.96959 1.18697,0 0,7.91111 4.41749,0 0,1.05848 -5.60446,0 z" /><path
         id="path12273"
         style="font-style:normal;font-variant:normal;font-weight:normal;font-stretch:normal;font-size:medium;line-height:125%;font-family:arial;-inkscape-font-specification:arial;letter-spacing:-1.14999998px;word-spacing:0px;fill:#ffffff;fill-opacity:1;stroke:none;stroke-width:1px;stroke-linecap:butt;stroke-linejoin:miter;stroke-opacity:1"
         d="m 789.4064,-204.33591 0,-7.9111 -2.9552,0 0,-1.05849 7.1096,0 0,1.05849 -2.96743,0 0,7.9111 -1.18697,0 z" /></g><g
       transform="matrix(0.56814888,0,0,0.56814888,286.65525,-37.694254)"
       id="g12412"><path
         id="path12288"
         style="font-style:normal;font-variant:normal;font-weight:normal;font-stretch:normal;font-size:medium;line-height:81.00000024%;font-family:arial;-inkscape-font-specification:arial;text-align:center;letter-spacing:-1.14999998px;word-spacing:0px;text-anchor:middle;fill:#ffffff;fill-opacity:1;stroke:none;stroke-width:1px;stroke-linecap:butt;stroke-linejoin:miter;stroke-opacity:1"
         d="m 774.92708,-193.23264 1.65772,0.4187 q -0.52124,2.04223 -1.87989,3.11889 -1.35009,1.06812 -3.30688,1.06812 -2.02515,0 -3.29834,-0.82031 -1.26465,-0.82886 -1.93115,-2.39258 -0.65796,-1.56372 -0.65796,-3.35816 0,-1.95678 0.74341,-3.40942 0.75195,-1.46118 2.12768,-2.21313 1.38428,-0.7605 3.04199,-0.7605 1.87989,0 3.16163,0.95703 1.28173,0.95703 1.78588,2.69165 l -1.63208,0.38452 q -0.43579,-1.36719 -1.26464,-1.99097 -0.82886,-0.62377 -2.08496,-0.62377 -1.4441,0 -2.41822,0.69213 -0.96557,0.69214 -1.35864,1.8628 -0.39307,1.16211 -0.39307,2.40112 0,1.5979 0.46143,2.79419 0.46997,1.18774 1.45264,1.77734 0.98266,0.5896 2.12768,0.5896 1.39282,0 2.3584,-0.80322 0.96558,-0.80322 1.30737,-2.38403 z" /><path
         id="path12290"
         style="font-style:normal;font-variant:normal;font-weight:normal;font-stretch:normal;font-size:medium;line-height:81.00000024%;font-family:arial;-inkscape-font-specification:arial;text-align:center;letter-spacing:-1.14999998px;word-spacing:0px;text-anchor:middle;fill:#ffffff;fill-opacity:1;stroke:none;stroke-width:1px;stroke-linecap:butt;stroke-linejoin:miter;stroke-opacity:1"
         d="m 776.10985,-188.84055 4.81079,-12.52686 1.78589,0 5.12695,12.52686 -1.88843,0 -1.46118,-3.79395 -5.23804,0 -1.37573,3.79395 -1.76025,0 z m 3.6145,-5.14405 4.24682,0 -1.30737,-3.46923 q -0.59814,-1.58082 -0.88867,-2.59766 -0.23926,1.20483 -0.67505,2.39258 l -1.37573,3.67431 z" /><path
         id="path12292"
         style="font-style:normal;font-variant:normal;font-weight:normal;font-stretch:normal;font-size:medium;line-height:81.00000024%;font-family:arial;-inkscape-font-specification:arial;text-align:center;letter-spacing:-1.14999998px;word-spacing:0px;text-anchor:middle;fill:#ffffff;fill-opacity:1;stroke:none;stroke-width:1px;stroke-linecap:butt;stroke-linejoin:miter;stroke-opacity:1"
         d="m 787.95667,-188.84055 0,-12.52686 1.65772,0 0,11.04859 6.16943,0 0,1.47827 -7.82715,0 z" /><path
         id="path12294"
         style="font-style:normal;font-variant:normal;font-weight:normal;font-stretch:normal;font-size:medium;line-height:81.00000024%;font-family:arial;-inkscape-font-specification:arial;text-align:center;letter-spacing:-1.14999998px;word-spacing:0px;text-anchor:middle;fill:#ffffff;fill-opacity:1;stroke:none;stroke-width:1px;stroke-linecap:butt;stroke-linejoin:miter;stroke-opacity:1"
         d="m 796.89822,-188.84055 0,-12.52686 1.65772,0 0,12.52686 -1.65772,0 z" /><path
         id="path12296"
         style="font-style:normal;font-variant:normal;font-weight:normal;font-stretch:normal;font-size:medium;line-height:81.00000024%;font-family:arial;-inkscape-font-specification:arial;text-align:center;letter-spacing:-1.14999998px;word-spacing:0px;text-anchor:middle;fill:#ffffff;fill-opacity:1;stroke:none;stroke-width:1px;stroke-linecap:butt;stroke-linejoin:miter;stroke-opacity:1"
         d="m 800.2514,-188.84055 0,-12.52686 4.69971,0 q 1.43554,0 2.29858,0.38452 0.87158,0.37598 1.35864,1.17066 0.49561,0.78613 0.49561,1.64917 0,0.80322 -0.43579,1.51245 -0.43579,0.70923 -1.31592,1.14502 1.13648,0.33325 1.74316,1.13647 0.61524,0.80322 0.61524,1.89697 0,0.88013 -0.37598,1.64063 -0.36743,0.75195 -0.9143,1.16211 -0.54688,0.41016 -1.37574,0.62378 -0.82031,0.20508 -2.0166,0.20508 l -4.77661,0 z m 1.65772,-7.26319 2.70874,0 q 1.10229,0 1.58081,-0.14526 0.63232,-0.18799 0.94848,-0.62378 0.32471,-0.43579 0.32471,-1.09375 0,-0.62378 -0.29907,-1.09375 -0.29907,-0.47852 -0.85449,-0.64941 -0.55542,-0.17945 -1.90552,-0.17945 l -2.50366,0 0,3.7854 z m 0,5.78492 3.11889,0 q 0.80322,0 1.12793,-0.0598 0.57251,-0.10254 0.95703,-0.3418 0.38452,-0.23925 0.63233,-0.69213 0.2478,-0.46143 0.2478,-1.05958 0,-0.70068 -0.35889,-1.21337 -0.35888,-0.52124 -0.99975,-0.72632 -0.63233,-0.21363 -1.82862,-0.21363 l -2.89672,0 0,4.30665 z" /><path
         id="path12298"
         style="font-style:normal;font-variant:normal;font-weight:normal;font-stretch:normal;font-size:medium;line-height:81.00000024%;font-family:arial;-inkscape-font-specification:arial;text-align:center;letter-spacing:-1.14999998px;word-spacing:0px;text-anchor:middle;fill:#ffffff;fill-opacity:1;stroke:none;stroke-width:1px;stroke-linecap:butt;stroke-linejoin:miter;stroke-opacity:1"
         d="m 810.88485,-188.84055 0,-12.52686 5.5542,0 q 1.6748,0 2.54638,0.3418 0.87158,0.33325 1.39282,1.18774 0.52124,0.85449 0.52124,1.88843 0,1.33301 -0.86303,2.24731 -0.86304,0.91431 -2.66602,1.16211 0.65796,0.31617 0.99976,0.62378 0.72632,0.66651 1.37573,1.66626 l 2.17896,3.40943 -2.08497,0 -1.65771,-2.6062 q -0.72632,-1.12793 -1.19629,-1.72608 -0.46997,-0.59814 -0.84595,-0.8374 -0.36743,-0.23926 -0.75195,-0.33325 -0.28198,-0.0598 -0.92285,-0.0598 l -1.92261,0 0,5.56275 -1.65771,0 z m 1.65771,-6.99829 3.56323,0 q 1.13648,0 1.77735,-0.23072 0.64087,-0.23925 0.97412,-0.75195 0.33325,-0.52124 0.33325,-1.12793 0,-0.88867 -0.64941,-1.46118 -0.64087,-0.57251 -2.0337,-0.57251 l -3.96484,0 0,4.14429 z" /><path
         id="path12300"
         style="font-style:normal;font-variant:normal;font-weight:normal;font-stretch:normal;font-size:medium;line-height:81.00000024%;font-family:arial;-inkscape-font-specification:arial;text-align:center;letter-spacing:-1.14999998px;word-spacing:0px;text-anchor:middle;fill:#ffffff;fill-opacity:1;stroke:none;stroke-width:1px;stroke-linecap:butt;stroke-linejoin:miter;stroke-opacity:1"
         d="m 820.97996,-188.84055 4.81079,-12.52686 1.78589,0 5.12695,12.52686 -1.88842,0 -1.46118,-3.79395 -5.23804,0 -1.37573,3.79395 -1.76026,0 z m 3.6145,-5.14405 4.24683,0 -1.30737,-3.46923 q -0.59815,-1.58082 -0.88867,-2.59766 -0.23926,1.20483 -0.67505,2.39258 l -1.37574,3.67431 z" /><path
         id="path12302"
         style="font-style:normal;font-variant:normal;font-weight:normal;font-stretch:normal;font-size:medium;line-height:81.00000024%;font-family:arial;-inkscape-font-specification:arial;text-align:center;letter-spacing:-1.14999998px;word-spacing:0px;text-anchor:middle;fill:#ffffff;fill-opacity:1;stroke:none;stroke-width:1px;stroke-linecap:butt;stroke-linejoin:miter;stroke-opacity:1"
         d="m 834.78357,-188.84055 0,-11.04859 -4.12719,0 0,-1.47827 9.9292,0 0,1.47827 -4.14429,0 0,11.04859 -1.65772,0 z" /><path
         id="path12304"
         style="font-style:normal;font-variant:normal;font-weight:normal;font-stretch:normal;font-size:medium;line-height:81.00000024%;font-family:arial;-inkscape-font-specification:arial;text-align:center;letter-spacing:-1.14999998px;word-spacing:0px;text-anchor:middle;fill:#ffffff;fill-opacity:1;stroke:none;stroke-width:1px;stroke-linecap:butt;stroke-linejoin:miter;stroke-opacity:1"
         d="m 841.17875,-188.84055 0,-12.52686 9.05761,0 0,1.47827 -7.3999,0 0,3.83667 6.92993,0 0,1.46973 -6.92993,0 0,4.26392 7.69043,0 0,1.47827 -9.34814,0 z" /><path
         id="path12306"
         style="font-style:normal;font-variant:normal;font-weight:normal;font-stretch:normal;font-size:medium;line-height:81.00000024%;font-family:arial;-inkscape-font-specification:arial;text-align:center;letter-spacing:-1.14999998px;word-spacing:0px;text-anchor:middle;fill:#ffffff;fill-opacity:1;stroke:none;stroke-width:1px;stroke-linecap:butt;stroke-linejoin:miter;stroke-opacity:1"
         d="m 851.68402,-188.84055 0,-12.52686 4.31518,0 q 1.46119,0 2.23023,0.17944 1.07666,0.24781 1.83716,0.89722 0.99121,0.8374 1.47827,2.14478 0.4956,1.29882 0.4956,2.97363 0,1.427 -0.33325,2.5293 -0.33325,1.10229 -0.85449,1.82861 -0.52124,0.71777 -1.14502,1.13647 -0.61523,0.41016 -1.49536,0.62378 -0.87158,0.21363 -2.00806,0.21363 l -4.52026,0 z m 1.65771,-1.47827 2.67456,0 q 1.23902,0 1.9397,-0.23072 0.70923,-0.23071 1.12793,-0.64941 0.5896,-0.5896 0.91431,-1.58081 0.33325,-0.99976 0.33325,-2.41822 0,-1.96533 -0.64942,-3.01635 -0.64086,-1.05957 -1.56372,-1.41846 -0.6665,-0.25635 -2.14477,-0.25635 l -2.63184,0 0,9.57032 z" /><path
         id="path12308"
         style="font-style:normal;font-variant:normal;font-weight:normal;font-stretch:normal;font-size:medium;line-height:81.00000024%;font-family:arial;-inkscape-font-specification:arial;text-align:center;letter-spacing:-1.14999998px;word-spacing:0px;text-anchor:middle;fill:#ffffff;fill-opacity:1;stroke:none;stroke-width:1px;stroke-linecap:butt;stroke-linejoin:miter;stroke-opacity:1"
         d="m 806.90789,-174.4004 0,-11.04858 -4.12719,0 0,-1.47827 9.9292,0 0,1.47827 -4.14429,0 0,11.04858 -1.65772,0 z" /><path
         id="path12310"
         style="font-style:normal;font-variant:normal;font-weight:normal;font-stretch:normal;font-size:medium;line-height:81.00000024%;font-family:arial;-inkscape-font-specification:arial;text-align:center;letter-spacing:-1.14999998px;word-spacing:0px;text-anchor:middle;fill:#ffffff;fill-opacity:1;stroke:none;stroke-width:1px;stroke-linecap:butt;stroke-linejoin:miter;stroke-opacity:1"
         d="m 812.4742,-180.50147 q 0,-3.1189 1.67481,-4.87915 1.6748,-1.7688 4.32373,-1.7688 1.73462,0 3.12744,0.82886 1.39282,0.82886 2.11914,2.31567 0.73486,1.47827 0.73486,3.35816 0,1.90551 -0.76904,3.40942 -0.76904,1.50391 -2.17896,2.28149 -1.40991,0.76905 -3.04199,0.76905 -1.7688,0 -3.16162,-0.85449 -1.39282,-0.8545 -2.11059,-2.33277 -0.71778,-1.47827 -0.71778,-3.12744 z m 1.70899,0.0256 q 0,2.2644 1.21338,3.57177 1.22192,1.29883 3.05908,1.29883 1.87134,0 3.07617,-1.31592 1.21338,-1.31592 1.21338,-3.73413 0,-1.52954 -0.52124,-2.66601 -0.5127,-1.14502 -1.51245,-1.7688 -0.99121,-0.63233 -2.23023,-0.63233 -1.76025,0 -3.03344,1.21338 -1.26465,1.20484 -1.26465,4.03321 z" /><g
         id="g12368"
         transform="translate(0,-6.125)"><path
           d="m 776.77528,-155.49363 0,1.47827 -8.28003,0 q -0.0171,-0.55542 0.17944,-1.06811 0.31616,-0.84595 1.0083,-1.66626 0.70068,-0.82031 2.0166,-1.89697 2.04224,-1.67481 2.76001,-2.64893 0.71778,-0.98266 0.71778,-1.85425 0,-0.9143 -0.65796,-1.53808 -0.64942,-0.63233 -1.70044,-0.63233 -1.11084,0 -1.77735,0.66651 -0.6665,0.6665 -0.67505,1.8457 l -1.58081,-0.16235 q 0.16236,-1.7688 1.22193,-2.69165 1.05957,-0.9314 2.84546,-0.9314 1.80298,0 2.854,0.99976 1.05103,0.99975 1.05103,2.47802 0,0.75196 -0.30762,1.47827 -0.30762,0.72632 -1.02539,1.52955 -0.70923,0.80322 -2.36694,2.20459 -1.38428,1.1621 -1.77735,1.58081 -0.39307,0.41015 -0.64941,0.82885 l 6.1438,0 z"
           style="font-style:normal;font-variant:normal;font-weight:normal;font-stretch:normal;font-size:medium;line-height:127.99999714%;font-family:arial;-inkscape-font-specification:arial;text-align:center;letter-spacing:-1.14999998px;word-spacing:0px;text-anchor:middle;fill:#ffffff;fill-opacity:1;stroke:none;stroke-width:1px;stroke-linecap:butt;stroke-linejoin:miter;stroke-opacity:1"
           id="path12312" /><path
           d="m 777.28299,-160.19333 q 0,-2.22168 0.45288,-3.57178 0.46143,-1.35864 1.35864,-2.09351 0.90577,-0.73486 2.27295,-0.73486 1.0083,0 1.7688,0.41016 0.7605,0.40161 1.25611,1.17065 0.4956,0.7605 0.77758,1.86279 0.28199,1.09375 0.28199,2.95655 0,2.20459 -0.45288,3.56323 -0.45289,1.3501 -1.35865,2.0935 -0.89721,0.73487 -2.27295,0.73487 -1.81152,0 -2.84546,-1.29883 -1.23901,-1.56372 -1.23901,-5.09277 z m 1.58081,0 q 0,3.08471 0.71778,4.1101 0.72631,1.01685 1.78588,1.01685 1.05957,0 1.77735,-1.02539 0.72632,-1.02539 0.72632,-4.10156 0,-3.09327 -0.72632,-4.11011 -0.71778,-1.01685 -1.79444,-1.01685 -1.05957,0 -1.69189,0.89722 -0.79468,1.14502 -0.79468,4.22974 z"
           style="font-style:normal;font-variant:normal;font-weight:normal;font-stretch:normal;font-size:medium;line-height:127.99999714%;font-family:arial;-inkscape-font-specification:arial;text-align:center;letter-spacing:-1.14999998px;word-spacing:0px;text-anchor:middle;fill:#ffffff;fill-opacity:1;stroke:none;stroke-width:1px;stroke-linecap:butt;stroke-linejoin:miter;stroke-opacity:1"
           id="path12314" /><path
           d="m 786.73724,-154.01536 0,-1.7517 1.75171,0 0,1.7517 -1.75171,0 z"
           style="font-style:normal;font-variant:normal;font-weight:normal;font-stretch:normal;font-size:medium;line-height:127.99999714%;font-family:arial;-inkscape-font-specification:arial;text-align:center;letter-spacing:-1.14999998px;word-spacing:0px;text-anchor:middle;fill:#ffffff;fill-opacity:1;stroke:none;stroke-width:1px;stroke-linecap:butt;stroke-linejoin:miter;stroke-opacity:1"
           id="path12316" /><path
           d="m 789.57772,-160.19333 q 0,-2.22168 0.45288,-3.57178 0.46142,-1.35864 1.35864,-2.09351 0.90576,-0.73486 2.27295,-0.73486 1.0083,0 1.7688,0.41016 0.7605,0.40161 1.2561,1.17065 0.49561,0.7605 0.77759,1.86279 0.28198,1.09375 0.28198,2.95655 0,2.20459 -0.45288,3.56323 -0.45288,1.3501 -1.35864,2.0935 -0.89722,0.73487 -2.27295,0.73487 -1.81152,0 -2.84546,-1.29883 -1.23901,-1.56372 -1.23901,-5.09277 z m 1.58081,0 q 0,3.08471 0.71777,4.1101 0.72632,1.01685 1.78589,1.01685 1.05957,0 1.77734,-1.02539 0.72632,-1.02539 0.72632,-4.10156 0,-3.09327 -0.72632,-4.11011 -0.71777,-1.01685 -1.79443,-1.01685 -1.05957,0 -1.6919,0.89722 -0.79467,1.14502 -0.79467,4.22974 z"
           style="font-style:normal;font-variant:normal;font-weight:normal;font-stretch:normal;font-size:medium;line-height:127.99999714%;font-family:arial;-inkscape-font-specification:arial;text-align:center;letter-spacing:-1.14999998px;word-spacing:0px;text-anchor:middle;fill:#ffffff;fill-opacity:1;stroke:none;stroke-width:1px;stroke-linecap:butt;stroke-linejoin:miter;stroke-opacity:1"
           id="path12318" /><path
           d="m 798.16893,-160.19333 q 0,-2.22168 0.45288,-3.57178 0.46142,-1.35864 1.35864,-2.09351 0.90576,-0.73486 2.27295,-0.73486 1.0083,0 1.7688,0.41016 0.7605,0.40161 1.2561,1.17065 0.49561,0.7605 0.77759,1.86279 0.28198,1.09375 0.28198,2.95655 0,2.20459 -0.45288,3.56323 -0.45288,1.3501 -1.35864,2.0935 -0.89722,0.73487 -2.27295,0.73487 -1.81152,0 -2.84546,-1.29883 -1.23901,-1.56372 -1.23901,-5.09277 z m 1.58081,0 q 0,3.08471 0.71777,4.1101 0.72632,1.01685 1.78589,1.01685 1.05957,0 1.77734,-1.02539 0.72632,-1.02539 0.72632,-4.10156 0,-3.09327 -0.72632,-4.11011 -0.71777,-1.01685 -1.79443,-1.01685 -1.05957,0 -1.69189,0.89722 -0.79468,1.14502 -0.79468,4.22974 z"
           style="font-style:normal;font-variant:normal;font-weight:normal;font-stretch:normal;font-size:medium;line-height:127.99999714%;font-family:arial;-inkscape-font-specification:arial;text-align:center;letter-spacing:-1.14999998px;word-spacing:0px;text-anchor:middle;fill:#ffffff;fill-opacity:1;stroke:none;stroke-width:1px;stroke-linecap:butt;stroke-linejoin:miter;stroke-opacity:1"
           id="path12320" /><path
           d="m 806.76014,-160.19333 q 0,-2.22168 0.45288,-3.57178 0.46143,-1.35864 1.35864,-2.09351 0.90576,-0.73486 2.27295,-0.73486 1.0083,0 1.7688,0.41016 0.7605,0.40161 1.2561,1.17065 0.49561,0.7605 0.77759,1.86279 0.28198,1.09375 0.28198,2.95655 0,2.20459 -0.45288,3.56323 -0.45288,1.3501 -1.35864,2.0935 -0.89722,0.73487 -2.27295,0.73487 -1.81152,0 -2.84546,-1.29883 -1.23901,-1.56372 -1.23901,-5.09277 z m 1.58081,0 q 0,3.08471 0.71777,4.1101 0.72632,1.01685 1.78589,1.01685 1.05957,0 1.77735,-1.02539 0.72631,-1.02539 0.72631,-4.10156 0,-3.09327 -0.72631,-4.11011 -0.71778,-1.01685 -1.79444,-1.01685 -1.05957,0 -1.69189,0.89722 -0.79468,1.14502 -0.79468,4.22974 z"
           style="font-style:normal;font-variant:normal;font-weight:normal;font-stretch:normal;font-size:medium;line-height:127.99999714%;font-family:arial;-inkscape-font-specification:arial;text-align:center;letter-spacing:-1.14999998px;word-spacing:0px;text-anchor:middle;fill:#ffffff;fill-opacity:1;stroke:none;stroke-width:1px;stroke-linecap:butt;stroke-linejoin:miter;stroke-opacity:1"
           id="path12322" /><path
           d="m 819.7641,-154.01536 0,-12.52685 8.45092,0 0,1.47827 -6.79321,0 0,3.8794 5.87891,0 0,1.47827 -5.87891,0 0,5.69091 -1.65771,0 z"
           style="font-style:normal;font-variant:normal;font-weight:normal;font-stretch:normal;font-size:medium;line-height:127.99999714%;font-family:arial;-inkscape-font-specification:arial;text-align:center;letter-spacing:-1.14999998px;word-spacing:0px;text-anchor:middle;fill:#ffffff;fill-opacity:1;stroke:none;stroke-width:1px;stroke-linecap:butt;stroke-linejoin:miter;stroke-opacity:1"
           id="path12324" /><path
           d="m 829.26107,-154.01536 0,-12.52685 9.05761,0 0,1.47827 -7.3999,0 0,3.83667 6.92993,0 0,1.46973 -6.92993,0 0,4.26391 7.69043,0 0,1.47827 -9.34814,0 z"
           style="font-style:normal;font-variant:normal;font-weight:normal;font-stretch:normal;font-size:medium;line-height:127.99999714%;font-family:arial;-inkscape-font-specification:arial;text-align:center;letter-spacing:-1.14999998px;word-spacing:0px;text-anchor:middle;fill:#ffffff;fill-opacity:1;stroke:none;stroke-width:1px;stroke-linecap:butt;stroke-linejoin:miter;stroke-opacity:1"
           id="path12326" /><path
           d="m 839.80052,-154.01536 0,-12.52685 9.05762,0 0,1.47827 -7.3999,0 0,3.83667 6.92993,0 0,1.46973 -6.92993,0 0,4.26391 7.69043,0 0,1.47827 -9.34815,0 z"
           style="font-style:normal;font-variant:normal;font-weight:normal;font-stretch:normal;font-size:medium;line-height:127.99999714%;font-family:arial;-inkscape-font-specification:arial;text-align:center;letter-spacing:-1.14999998px;word-spacing:0px;text-anchor:middle;fill:#ffffff;fill-opacity:1;stroke:none;stroke-width:1px;stroke-linecap:butt;stroke-linejoin:miter;stroke-opacity:1"
           id="path12328" /><path
           d="m 853.49305,-154.01536 0,-11.04858 -4.1272,0 0,-1.47827 9.9292,0 0,1.47827 -4.14429,0 0,11.04858 -1.65771,0 z"
           style="font-style:normal;font-variant:normal;font-weight:normal;font-stretch:normal;font-size:medium;line-height:127.99999714%;font-family:arial;-inkscape-font-specification:arial;text-align:center;letter-spacing:-1.14999998px;word-spacing:0px;text-anchor:middle;fill:#ffffff;fill-opacity:1;stroke:none;stroke-width:1px;stroke-linecap:butt;stroke-linejoin:miter;stroke-opacity:1"
           id="path12330" /></g></g></g></svg>