<?xml version="1.0" encoding="UTF-8" standalone="no"?>
<svg
   xmlns:osb="http://www.openswatchbook.org/uri/2009/osb"
   xmlns:dc="http://purl.org/dc/elements/1.1/"
   xmlns:cc="http://creativecommons.org/ns#"
   xmlns:rdf="http://www.w3.org/1999/02/22-rdf-syntax-ns#"
   xmlns:svg="http://www.w3.org/2000/svg"
   xmlns="http://www.w3.org/2000/svg"
   version="1.1"
   id="Layer_2"
   x="0px"
   y="0px"
   width="400.66699"
   height="400.66599"
   viewBox="0 0 400.667 400.666"
   enable-background="new 0 0 400.667 400.666"
   xml:space="preserve"><metadata
     id="metadata111"><rdf:RDF><cc:Work
         rdf:about=""><dc:format>image/svg+xml</dc:format><dc:type
           rdf:resource="http://purl.org/dc/dcmitype/StillImage" /><dc:title></dc:title></cc:Work></rdf:RDF></metadata><defs
     id="defs109"><linearGradient
       id="linearGradient5786"
       osb:paint="gradient"><stop
         style="stop-color:#363636;stop-opacity:1;"
         offset="0"
         id="stop5788" /><stop
         style="stop-color:#000000;stop-opacity:1;"
         offset="1"
         id="stop5790" /></linearGradient><filter
       style="color-interpolation-filters:sRGB"
       id="filter6375"
       x="-0.12593441"
       width="1.2518688"
       y="-0.029650692"
       height="1.0593014"><feGaussianBlur
         stdDeviation="2.3857802"
         id="feGaussianBlur6377" /></filter></defs><g
     transform="matrix(1.1106764,0,0,1.1106764,-729.4964,406.75704)"
     style="display:inline"
     id="g6367"><path
       style="display:inline;opacity:1;fill:#000000;fill-opacity:1;stroke:none;stroke-width:0.66157639;stroke-linecap:butt;stroke-linejoin:round;stroke-miterlimit:4;stroke-dasharray:none;stroke-opacity:1;filter:url(#filter6375)"
       d="m 824.11249,-309.61785 11.8393,22.43157 0,33.34398 -2.3776,3.10114 0,53.97275 c -4.50184,1.58858 -7.51455,5.84103 -7.5203,10.61493 0.005,4.80193 3.05255,9.07317 7.5914,10.64079 -6.3513,18.36766 -12.7019,36.73554 -19.0525,55.10336 7.3077,2.55511 14.9903,3.87394 22.7319,3.90227 7.7423,-0.0258 15.426,-1.34253 22.7352,-3.8958 l -19.0558,-55.10983 c 4.53885,-1.56762 7.58606,-5.83886 7.5914,-10.64079 -0.006,-4.7739 -3.01846,-9.02635 -7.5203,-10.61493 l 0,-53.97275 -2.3776,-3.10114 0,-33.34398 11.83961,-22.4317 z"
       id="path6361" /><path
       id="path11883"
       d="m 824.11249,-309.61785 11.8393,22.43157 0,33.34398 -2.3776,3.10114 0,53.97275 c -4.50184,1.58858 -7.51455,5.84103 -7.5203,10.61493 0.005,4.80193 3.05255,9.07317 7.5914,10.64079 -6.3513,18.36766 -12.7019,36.73554 -19.0525,55.10336 7.3077,2.55511 14.98998,3.87394 22.73158,3.90227 7.7423,-0.0258 15.42632,-1.34253 22.73552,-3.8958 l -19.0558,-55.10983 c 4.53885,-1.56762 7.58606,-5.83886 7.5914,-10.64079 -0.006,-4.7739 -3.01846,-9.02635 -7.5203,-10.61493 l 0,-53.97275 -2.3776,-3.10114 0,-33.34398 11.83961,-22.4317 z"
       style="display:inline;opacity:1;fill:#ffffff;fill-opacity:1;stroke:#555555;stroke-width:0.75;stroke-linecap:butt;stroke-linejoin:round;stroke-miterlimit:4;stroke-dasharray:none;stroke-opacity:1" /></g></svg>