<?xml version="1.0" encoding="UTF-8" standalone="no"?>
<svg
   xmlns:osb="http://www.openswatchbook.org/uri/2009/osb"
   xmlns:dc="http://purl.org/dc/elements/1.1/"
   xmlns:cc="http://creativecommons.org/ns#"
   xmlns:rdf="http://www.w3.org/1999/02/22-rdf-syntax-ns#"
   xmlns:svg="http://www.w3.org/2000/svg"
   xmlns="http://www.w3.org/2000/svg"
   xmlns:xlink="http://www.w3.org/1999/xlink"
   version="1.1"
   id="Layer_2"
   x="0px"
   y="0px"
   width="400.66699"
   height="400.66599"
   viewBox="0 0 400.667 400.666"
   enable-background="new 0 0 400.667 400.666"
   xml:space="preserve"><metadata
     id="metadata111"><rdf:RDF><cc:Work
         rdf:about=""><dc:format>image/svg+xml</dc:format><dc:type
           rdf:resource="http://purl.org/dc/dcmitype/StillImage" /><dc:title></dc:title></cc:Work></rdf:RDF></metadata><defs
     id="defs109"><linearGradient
       osb:paint="gradient"
       id="linearGradient5786"><stop
         id="stop5788"
         offset="0"
         style="stop-color:#2d2d2d;stop-opacity:1" /><stop
         id="stop5790"
         offset="1"
         style="stop-color:#000000;stop-opacity:1;" /></linearGradient><linearGradient
       y2="187.36218"
       x2="191.42857"
       y1="109.9982"
       x1="106.39748"
       gradientUnits="userSpaceOnUse"
       id="linearGradient5945-6"
       xlink:href="#linearGradient5786"
       gradientTransform="matrix(0.6026126,0,0,0.6026126,168.74641,146.73366)" /></defs><g
     id="airspeedIndicatorBg"
     style="display:inline"
     transform="matrix(2.2213481,0,0,2.2213481,-86.85814,-4.9720701)"><g
       transform="translate(-154.74155,-167.38009)"
       style="display:inline"
       id="g12271"><path
         id="path4815-8"
         d="m 352.97367,259.64051 c 0,38.03586 -30.83415,68.87001 -68.87001,68.87001 -38.03586,1e-5 -68.87002,-30.83416 -68.87002,-68.87002 0,-38.03586 30.83415,-68.87001 68.87001,-68.87 38.03586,0 68.87002,30.83415 68.87002,68.87001 z"
         style="display:inline;fill:url(#linearGradient5945-6);fill-opacity:1;fill-rule:evenodd;stroke:none;stroke-width:0.96476698;stroke-linecap:butt;stroke-linejoin:miter;stroke-miterlimit:4;stroke-dasharray:none;stroke-dashoffset:0;stroke-opacity:1" /><g
         id="g12183"><path
           style="display:inline;fill:none;fill-opacity:1;fill-rule:evenodd;stroke:#951c00;stroke-width:1.54233348;stroke-linecap:butt;stroke-linejoin:miter;stroke-miterlimit:4;stroke-dasharray:none;stroke-dashoffset:0;stroke-opacity:1"
           d="m 284.12822,211.04685 -0.0251,-12.1755"
           id="path5836-0" /><path
           style="display:inline;fill:none;fill-opacity:1;fill-rule:evenodd;stroke:#ffffff;stroke-width:1.54233348;stroke-linecap:butt;stroke-linejoin:miter;stroke-miterlimit:4;stroke-dasharray:none;stroke-dashoffset:0;stroke-opacity:1"
           d="m 292.47866,211.76974 2.08083,-11.94358"
           id="path5922-3" /><path
           style="display:inline;fill:none;fill-opacity:1;fill-rule:evenodd;stroke:#ffffff;stroke-width:1.54233348;stroke-linecap:butt;stroke-linejoin:miter;stroke-miterlimit:4;stroke-dasharray:none;stroke-dashoffset:0;stroke-opacity:1"
           d="m 288.43885,209.17422 0.85923,-10.05756"
           id="path5920-3" /><path
           style="display:inline;fill:none;fill-opacity:1;fill-rule:evenodd;stroke:#ffffff;stroke-width:1.54233348;stroke-linecap:butt;stroke-linejoin:miter;stroke-miterlimit:4;stroke-dasharray:none;stroke-dashoffset:0;stroke-opacity:1"
           d="m 279.58821,209.19229 -0.9003,-10.05396"
           id="path5918-5" /><path
           style="display:inline;fill:none;fill-opacity:1;fill-rule:evenodd;stroke:#ffffff;stroke-width:1.54233348;stroke-linecap:butt;stroke-linejoin:miter;stroke-miterlimit:4;stroke-dasharray:none;stroke-dashoffset:0;stroke-opacity:1"
           d="m 270.88114,210.76911 -2.63253,-9.74505"
           id="path5916-6" /><path
           style="display:inline;fill:none;fill-opacity:1;fill-rule:evenodd;stroke:#ffffff;stroke-width:1.54233348;stroke-linecap:butt;stroke-linejoin:miter;stroke-miterlimit:4;stroke-dasharray:none;stroke-dashoffset:0;stroke-opacity:1"
           d="m 262.5713,213.80569 -4.27985,-9.12947"
           id="path5914-9" /><path
           style="display:inline;fill:none;fill-opacity:1;fill-rule:evenodd;stroke:#ffffff;stroke-width:1.54233348;stroke-linecap:butt;stroke-linejoin:miter;stroke-miterlimit:4;stroke-dasharray:none;stroke-dashoffset:0;stroke-opacity:1"
           d="m 254.91203,218.23693 -5.80269,-8.25119"
           id="path5912-5" /><path
           style="display:inline;fill:none;fill-opacity:1;fill-rule:evenodd;stroke:#ffffff;stroke-width:1.54233348;stroke-linecap:butt;stroke-linejoin:miter;stroke-miterlimit:4;stroke-dasharray:none;stroke-dashoffset:0;stroke-opacity:1"
           d="m 248.12,223.91483 -7.14785,-7.11872"
           id="path5910-2" /><path
           style="display:inline;fill:none;fill-opacity:1;fill-rule:evenodd;stroke:#ffffff;stroke-width:1.54233348;stroke-linecap:butt;stroke-linejoin:miter;stroke-miterlimit:4;stroke-dasharray:none;stroke-dashoffset:0;stroke-opacity:1"
           d="m 242.46988,230.73 -8.27481,-5.76895"
           id="path5908-2" /><path
           style="display:inline;fill:none;fill-opacity:1;fill-rule:evenodd;stroke:#ffffff;stroke-width:1.54233348;stroke-linecap:butt;stroke-linejoin:miter;stroke-miterlimit:4;stroke-dasharray:none;stroke-dashoffset:0;stroke-opacity:1"
           d="m 238.0717,238.40811 -9.14793,-4.24303"
           id="path5906-1" /><path
           style="display:inline;fill:none;fill-opacity:1;fill-rule:evenodd;stroke:#ffffff;stroke-width:1.54233348;stroke-linecap:butt;stroke-linejoin:miter;stroke-miterlimit:4;stroke-dasharray:none;stroke-dashoffset:0;stroke-opacity:1"
           d="m 235.07006,246.73019 -9.75895,-2.59356"
           id="path5904-8" /><path
           style="display:inline;fill:none;fill-opacity:1;fill-rule:evenodd;stroke:#ffffff;stroke-width:1.54233348;stroke-linecap:butt;stroke-linejoin:miter;stroke-miterlimit:4;stroke-dasharray:none;stroke-dashoffset:0;stroke-opacity:1"
           d="m 233.52968,255.44321 -10.05974,-0.85942"
           id="path5902-8" /><path
           style="display:inline;fill:none;fill-opacity:1;fill-rule:evenodd;stroke:#ffffff;stroke-width:1.54233348;stroke-linecap:butt;stroke-linejoin:miter;stroke-miterlimit:4;stroke-dasharray:none;stroke-dashoffset:0;stroke-opacity:1"
           d="m 233.54809,264.29319 -10.05635,0.90052"
           id="path5900-7" /><path
           style="display:inline;fill:none;fill-opacity:1;fill-rule:evenodd;stroke:#ffffff;stroke-width:1.54233348;stroke-linecap:butt;stroke-linejoin:miter;stroke-miterlimit:4;stroke-dasharray:none;stroke-dashoffset:0;stroke-opacity:1"
           d="m 235.10569,273.00475 -9.73146,2.62884"
           id="path5898-1" /><path
           style="display:inline;fill:none;fill-opacity:1;fill-rule:evenodd;stroke:#ffffff;stroke-width:1.54233348;stroke-linecap:butt;stroke-linejoin:miter;stroke-miterlimit:4;stroke-dasharray:none;stroke-dashoffset:0;stroke-opacity:1"
           d="m 238.174,281.30274 -9.14703,4.28809"
           id="path5896-7" /><path
           style="display:inline;fill:none;fill-opacity:1;fill-rule:evenodd;stroke:#ffffff;stroke-width:1.54233348;stroke-linecap:butt;stroke-linejoin:miter;stroke-miterlimit:4;stroke-dasharray:none;stroke-dashoffset:0;stroke-opacity:1"
           d="m 242.59957,288.96216 -8.26491,5.81233"
           id="path5894-2" /><path
           style="display:inline;fill:none;fill-opacity:1;fill-rule:evenodd;stroke:#ffffff;stroke-width:1.54233348;stroke-linecap:butt;stroke-linejoin:miter;stroke-miterlimit:4;stroke-dasharray:none;stroke-dashoffset:0;stroke-opacity:1"
           d="m 248.28274,295.74566 -0.008,0.008"
           id="path5892-0" /><path
           style="display:inline;fill:none;fill-opacity:1;fill-rule:evenodd;stroke:#ffffff;stroke-width:1.54233348;stroke-linecap:butt;stroke-linejoin:miter;stroke-miterlimit:4;stroke-dasharray:none;stroke-dashoffset:0;stroke-opacity:1"
           d="m 248.27474,295.75369 -7.12986,7.15904"
           id="path5890-5" /><path
           style="display:inline;fill:none;fill-opacity:1;fill-rule:evenodd;stroke:#ffffff;stroke-width:1.54233348;stroke-linecap:butt;stroke-linejoin:miter;stroke-miterlimit:4;stroke-dasharray:none;stroke-dashoffset:0;stroke-opacity:1"
           d="m 255.08374,301.4092 -5.77967,8.2902"
           id="path5888-0" /><path
           style="display:inline;fill:none;fill-opacity:1;fill-rule:evenodd;stroke:#ffffff;stroke-width:1.54233348;stroke-linecap:butt;stroke-linejoin:miter;stroke-miterlimit:4;stroke-dasharray:none;stroke-dashoffset:0;stroke-opacity:1"
           d="m 262.7607,305.80852 -4.24346,9.14885"
           id="path5885-5" /><path
           style="display:inline;fill:none;fill-opacity:1;fill-rule:evenodd;stroke:#ffffff;stroke-width:1.54233348;stroke-linecap:butt;stroke-linejoin:miter;stroke-miterlimit:4;stroke-dasharray:none;stroke-dashoffset:0;stroke-opacity:1"
           d="m 271.08234,308.81068 -2.5933,9.75798"
           id="path5883-5" /><path
           style="display:inline;fill:none;fill-opacity:1;fill-rule:evenodd;stroke:#ffffff;stroke-width:1.54233348;stroke-linecap:butt;stroke-linejoin:miter;stroke-miterlimit:4;stroke-dasharray:none;stroke-dashoffset:0;stroke-opacity:1"
           d="m 279.79512,310.35172 -0.85943,10.05995"
           id="path5881-8" /><path
           style="display:inline;fill:none;fill-opacity:1;fill-rule:evenodd;stroke:#ffffff;stroke-width:1.54233348;stroke-linecap:butt;stroke-linejoin:miter;stroke-miterlimit:4;stroke-dasharray:none;stroke-dashoffset:0;stroke-opacity:1"
           d="M 288.64509,310.33365 289.5456,320.39"
           id="path5879-7" /><path
           style="display:inline;fill:none;fill-opacity:1;fill-rule:evenodd;stroke:#ffffff;stroke-width:1.54233348;stroke-linecap:butt;stroke-linejoin:miter;stroke-miterlimit:4;stroke-dasharray:none;stroke-dashoffset:0;stroke-opacity:1"
           d="m 297.35151,308.75704 2.63313,9.74731"
           id="path5877-0" /><path
           style="display:inline;fill:none;fill-opacity:1;fill-rule:evenodd;stroke:#ffffff;stroke-width:1.54233348;stroke-linecap:butt;stroke-linejoin:miter;stroke-miterlimit:4;stroke-dasharray:none;stroke-dashoffset:0;stroke-opacity:1"
           d="m 305.66081,305.72092 4.28079,9.13144"
           id="path5875-3" /><path
           style="display:inline;fill:none;fill-opacity:1;fill-rule:evenodd;stroke:#ffffff;stroke-width:1.54233348;stroke-linecap:butt;stroke-linejoin:miter;stroke-miterlimit:4;stroke-dasharray:none;stroke-dashoffset:0;stroke-opacity:1"
           d="m 313.31975,301.29027 5.81348,8.26653"
           id="path5873-8" /><path
           style="display:inline;fill:none;fill-opacity:1;fill-rule:evenodd;stroke:#ffffff;stroke-width:1.54233348;stroke-linecap:butt;stroke-linejoin:miter;stroke-miterlimit:4;stroke-dasharray:none;stroke-dashoffset:0;stroke-opacity:1"
           d="m 320.09755,295.59899 0.008,0.008"
           id="path5871-1" /><path
           style="display:inline;fill:none;fill-opacity:1;fill-rule:evenodd;stroke:#ffffff;stroke-width:1.54233348;stroke-linecap:butt;stroke-linejoin:miter;stroke-miterlimit:4;stroke-dasharray:none;stroke-dashoffset:0;stroke-opacity:1"
           d="m 320.10559,295.60699 7.1559,7.12674"
           id="path5869-5" /><path
           style="display:inline;fill:none;fill-opacity:1;fill-rule:evenodd;stroke:#ffffff;stroke-width:1.54233348;stroke-linecap:butt;stroke-linejoin:miter;stroke-miterlimit:4;stroke-dasharray:none;stroke-dashoffset:0;stroke-opacity:1"
           d="m 325.75296,288.79232 8.28858,5.77854"
           id="path5867-9" /><path
           style="display:inline;fill:none;fill-opacity:1;fill-rule:evenodd;stroke:#ffffff;stroke-width:1.54233348;stroke-linecap:butt;stroke-linejoin:miter;stroke-miterlimit:4;stroke-dasharray:none;stroke-dashoffset:0;stroke-opacity:1"
           d="m 330.16042,281.12104 9.15501,4.24631"
           id="path5865-0" /><path
           style="display:inline;fill:none;fill-opacity:1;fill-rule:evenodd;stroke:#ffffff;stroke-width:1.54233348;stroke-linecap:butt;stroke-linejoin:miter;stroke-miterlimit:4;stroke-dasharray:none;stroke-dashoffset:0;stroke-opacity:1"
           d="m 333.18161,272.80445 9.74211,2.58909"
           id="path5863-8" /><path
           style="display:inline;fill:none;fill-opacity:1;fill-rule:evenodd;stroke:#ffffff;stroke-width:1.54233348;stroke-linecap:butt;stroke-linejoin:miter;stroke-miterlimit:4;stroke-dasharray:none;stroke-dashoffset:0;stroke-opacity:1"
           d="m 334.7036,264.0866 10.05995,0.85944"
           id="path5861-5" /><path
           style="display:inline;fill:none;fill-opacity:1;fill-rule:evenodd;stroke:#ffffff;stroke-width:1.54233348;stroke-linecap:butt;stroke-linejoin:miter;stroke-miterlimit:4;stroke-dasharray:none;stroke-dashoffset:0;stroke-opacity:1"
           d="m 334.68587,255.23662 10.05615,-0.9005"
           id="path5855-1" /><path
           style="display:inline;fill:none;fill-opacity:1;fill-rule:evenodd;stroke:#ffffff;stroke-width:1.54233348;stroke-linecap:butt;stroke-linejoin:miter;stroke-miterlimit:4;stroke-dasharray:none;stroke-dashoffset:0;stroke-opacity:1"
           d="m 333.10993,246.52996 9.74827,-2.63339"
           id="path5853-7" /><path
           style="display:inline;fill:none;fill-opacity:1;fill-rule:evenodd;stroke:#ffffff;stroke-width:1.54233348;stroke-linecap:butt;stroke-linejoin:miter;stroke-miterlimit:4;stroke-dasharray:none;stroke-dashoffset:0;stroke-opacity:1"
           d="m 330.07433,238.22021 9.13051,-4.28035"
           id="path5851-8" /><path
           style="display:inline;fill:none;fill-opacity:1;fill-rule:evenodd;stroke:#ffffff;stroke-width:1.54233348;stroke-linecap:butt;stroke-linejoin:miter;stroke-miterlimit:4;stroke-dasharray:none;stroke-dashoffset:0;stroke-opacity:1"
           d="m 325.6359,230.56639 8.25625,-5.80625"
           id="path5849-9" /><path
           style="display:inline;fill:none;fill-opacity:1;fill-rule:evenodd;stroke:#ffffff;stroke-width:1.54233348;stroke-linecap:butt;stroke-linejoin:miter;stroke-miterlimit:4;stroke-dasharray:none;stroke-dashoffset:0;stroke-opacity:1"
           d="m 319.96691,223.76809 7.11871,-7.14785"
           id="path5847-7" /><path
           style="display:inline;fill:none;fill-opacity:1;fill-rule:evenodd;stroke:#ffffff;stroke-width:1.54233348;stroke-linecap:butt;stroke-linejoin:miter;stroke-miterlimit:4;stroke-dasharray:none;stroke-dashoffset:0;stroke-opacity:1"
           d="m 313.15175,218.11797 5.76894,-8.27482"
           id="path5845-5" /><path
           style="display:inline;fill:none;fill-opacity:1;fill-rule:evenodd;stroke:#ffffff;stroke-width:1.54233348;stroke-linecap:butt;stroke-linejoin:miter;stroke-miterlimit:4;stroke-dasharray:none;stroke-dashoffset:0;stroke-opacity:1"
           d="m 305.47445,213.71805 4.24253,-9.14686"
           id="path5843-5" /><path
           style="display:inline;fill:none;fill-opacity:1;fill-rule:evenodd;stroke:#ffffff;stroke-width:1.54233348;stroke-linecap:butt;stroke-linejoin:miter;stroke-miterlimit:4;stroke-dasharray:none;stroke-dashoffset:0;stroke-opacity:1"
           d="m 297.15229,210.71544 2.59269,-9.75573"
           id="path5840-0" /><path
           style="display:inline;fill:none;fill-opacity:1;fill-rule:evenodd;stroke:#ffffff;stroke-width:1.54233348;stroke-linecap:butt;stroke-linejoin:miter;stroke-miterlimit:4;stroke-dasharray:none;stroke-dashoffset:0;stroke-opacity:1"
           d="m 275.56682,211.84786 -2.13775,-11.98063"
           id="path5834-1" /><path
           style="display:inline;fill:none;fill-opacity:1;fill-rule:evenodd;stroke:#ffffff;stroke-width:1.54233348;stroke-linecap:butt;stroke-linejoin:miter;stroke-miterlimit:4;stroke-dasharray:none;stroke-dashoffset:0;stroke-opacity:1"
           d="m 267.3733,214.05313 -4.18069,-11.41377"
           id="path5832-8" /><path
           style="display:inline;fill:none;fill-opacity:1;fill-rule:evenodd;stroke:#ffffff;stroke-width:1.54233348;stroke-linecap:butt;stroke-linejoin:miter;stroke-miterlimit:4;stroke-dasharray:none;stroke-dashoffset:0;stroke-opacity:1"
           d="m 259.69564,217.66498 -6.1063,-10.52672"
           id="path5830-8" /><path
           style="display:inline;fill:none;fill-opacity:1;fill-rule:evenodd;stroke:#ffffff;stroke-width:1.54233348;stroke-linecap:butt;stroke-linejoin:miter;stroke-miterlimit:4;stroke-dasharray:none;stroke-dashoffset:0;stroke-opacity:1"
           d="m 252.73609,222.52154 -7.83923,-9.30379"
           id="path5828-9" /><path
           style="display:inline;fill:none;fill-opacity:1;fill-rule:evenodd;stroke:#ffffff;stroke-width:1.54233348;stroke-linecap:butt;stroke-linejoin:miter;stroke-miterlimit:4;stroke-dasharray:none;stroke-dashoffset:0;stroke-opacity:1"
           d="m 246.74601,228.53691 -9.336,-7.8014"
           id="path5826-4" /><path
           style="display:inline;fill:none;fill-opacity:1;fill-rule:evenodd;stroke:#ffffff;stroke-width:1.54233348;stroke-linecap:butt;stroke-linejoin:miter;stroke-miterlimit:4;stroke-dasharray:none;stroke-dashoffset:0;stroke-opacity:1"
           d="m 241.90878,235.51088 -10.55376,-6.06451"
           id="path5824-7" /><path
           style="display:inline;fill:none;fill-opacity:1;fill-rule:evenodd;stroke:#ffffff;stroke-width:1.54233348;stroke-linecap:butt;stroke-linejoin:miter;stroke-miterlimit:4;stroke-dasharray:none;stroke-dashoffset:0;stroke-opacity:1"
           d="M 238.33953,243.20914 226.90715,239.0745"
           id="path5822-2" /><path
           style="display:inline;fill:none;fill-opacity:1;fill-rule:evenodd;stroke:#ffffff;stroke-width:1.54233348;stroke-linecap:butt;stroke-linejoin:miter;stroke-miterlimit:4;stroke-dasharray:none;stroke-dashoffset:0;stroke-opacity:1"
           d="m 236.15322,251.40859 -11.99159,-2.0892"
           id="path5820-6" /><path
           style="display:inline;fill:none;fill-opacity:1;fill-rule:evenodd;stroke:#ffffff;stroke-width:1.54233348;stroke-linecap:butt;stroke-linejoin:miter;stroke-miterlimit:4;stroke-dasharray:none;stroke-dashoffset:0;stroke-opacity:1"
           d="m 235.38712,259.86442 -12.1784,0.0249"
           id="path5818-0" /><path
           style="display:inline;fill:none;fill-opacity:1;fill-rule:evenodd;stroke:#ffffff;stroke-width:1.54233348;stroke-linecap:butt;stroke-linejoin:miter;stroke-miterlimit:4;stroke-dasharray:none;stroke-dashoffset:0;stroke-opacity:1"
           d="m 236.1885,268.31692 -11.98345,2.13825"
           id="path5816-6" /><path
           style="display:inline;fill:none;fill-opacity:1;fill-rule:evenodd;stroke:#ffffff;stroke-width:1.54233348;stroke-linecap:butt;stroke-linejoin:miter;stroke-miterlimit:4;stroke-dasharray:none;stroke-dashoffset:0;stroke-opacity:1"
           d="m 238.40896,276.50699 -11.41634,4.18162"
           id="path5814-9" /><path
           style="display:inline;fill:none;fill-opacity:1;fill-rule:evenodd;stroke:#ffffff;stroke-width:1.54233348;stroke-linecap:butt;stroke-linejoin:miter;stroke-miterlimit:4;stroke-dasharray:none;stroke-dashoffset:0;stroke-opacity:1"
           d="m 242.00316,284.19405 -10.52321,6.10426"
           id="path5812-6" /><path
           style="display:inline;fill:none;fill-opacity:1;fill-rule:evenodd;stroke:#ffffff;stroke-width:1.54233348;stroke-linecap:butt;stroke-linejoin:miter;stroke-miterlimit:4;stroke-dasharray:none;stroke-dashoffset:0;stroke-opacity:1"
           d="m 246.87604,291.14344 -9.30548,7.84067"
           id="path5810-1" /><path
           style="display:inline;fill:none;fill-opacity:1;fill-rule:evenodd;stroke:#ffffff;stroke-width:1.54233348;stroke-linecap:butt;stroke-linejoin:miter;stroke-miterlimit:4;stroke-dasharray:none;stroke-dashoffset:0;stroke-opacity:1"
           d="m 252.89063,297.13352 -7.80259,9.33744"
           id="path5808-1" /><path
           style="display:inline;fill:none;fill-opacity:1;fill-rule:evenodd;stroke:#ffffff;stroke-width:1.54233348;stroke-linecap:butt;stroke-linejoin:miter;stroke-miterlimit:4;stroke-dasharray:none;stroke-dashoffset:0;stroke-opacity:1"
           d="m 259.8697,301.9609 -6.07144,10.56581"
           id="path5806-1" /><path
           style="display:inline;fill:none;fill-opacity:1;fill-rule:evenodd;stroke:#ffffff;stroke-width:1.54233348;stroke-linecap:butt;stroke-linejoin:miter;stroke-miterlimit:4;stroke-dasharray:none;stroke-dashoffset:0;stroke-opacity:1"
           d="m 267.56155,305.54077 -4.13497,11.43331"
           id="path5804-1" /><path
           style="display:inline;fill:none;fill-opacity:1;fill-rule:evenodd;stroke:#ffffff;stroke-width:1.54233348;stroke-linecap:butt;stroke-linejoin:miter;stroke-miterlimit:4;stroke-dasharray:none;stroke-dashoffset:0;stroke-opacity:1"
           d="m 275.76062,307.72774 -2.08657,11.9765"
           id="path5802-3" /><path
           style="display:inline;fill:none;fill-opacity:1;fill-rule:evenodd;stroke:#ffffff;stroke-width:1.54233348;stroke-linecap:butt;stroke-linejoin:miter;stroke-miterlimit:4;stroke-dasharray:none;stroke-dashoffset:0;stroke-opacity:1"
           d="m 284.21629,308.47854 0.0249,12.1784"
           id="path5800-8" /><path
           style="display:inline;fill:none;fill-opacity:1;fill-rule:evenodd;stroke:#ffffff;stroke-width:1.54233348;stroke-linecap:butt;stroke-linejoin:miter;stroke-miterlimit:4;stroke-dasharray:none;stroke-dashoffset:0;stroke-opacity:1"
           d="m 292.66881,307.69322 2.13547,11.96787"
           id="path5798-3" /><path
           style="display:inline;fill:none;fill-opacity:1;fill-rule:evenodd;stroke:#ffffff;stroke-width:1.54233348;stroke-linecap:butt;stroke-linejoin:miter;stroke-miterlimit:4;stroke-dasharray:none;stroke-dashoffset:0;stroke-opacity:1"
           d="m 300.85889,305.47278 4.18163,11.41633"
           id="path5796-7" /><path
           style="display:inline;fill:none;fill-opacity:1;fill-rule:evenodd;stroke:#ffffff;stroke-width:1.54233348;stroke-linecap:butt;stroke-linejoin:miter;stroke-miterlimit:4;stroke-dasharray:none;stroke-dashoffset:0;stroke-opacity:1"
           d="m 308.53605,301.86151 6.11455,10.54092"
           id="path5793-2" /><path
           style="display:inline;fill:none;fill-opacity:1;fill-rule:evenodd;stroke:#ffffff;stroke-width:1.54233348;stroke-linecap:butt;stroke-linejoin:miter;stroke-miterlimit:4;stroke-dasharray:none;stroke-dashoffset:0;stroke-opacity:1"
           d="m 315.49533,297.00569 7.84067,9.30548"
           id="path5791-8" /><path
           style="display:inline;fill:none;fill-opacity:1;fill-rule:evenodd;stroke:#ffffff;stroke-width:1.54233348;stroke-linecap:butt;stroke-linejoin:miter;stroke-miterlimit:4;stroke-dasharray:none;stroke-dashoffset:0;stroke-opacity:1"
           d="m 321.48542,290.99109 9.33743,7.80259"
           id="path5789-8" /><path
           style="display:inline;fill:none;fill-opacity:1;fill-rule:evenodd;stroke:#ffffff;stroke-width:1.54233348;stroke-linecap:butt;stroke-linejoin:miter;stroke-miterlimit:4;stroke-dasharray:none;stroke-dashoffset:0;stroke-opacity:1"
           d="m 326.32988,284.02184 10.54805,6.06123"
           id="path5787-6" /><path
           style="display:inline;fill:none;fill-opacity:1;fill-rule:evenodd;stroke:#ffffff;stroke-width:1.54233348;stroke-linecap:butt;stroke-linejoin:miter;stroke-miterlimit:4;stroke-dasharray:none;stroke-dashoffset:0;stroke-opacity:1"
           d="m 329.89265,276.32018 11.43332,4.13496"
           id="path5785-2" /><path
           style="display:inline;fill:none;fill-opacity:1;fill-rule:evenodd;stroke:#ffffff;stroke-width:1.54233348;stroke-linecap:butt;stroke-linejoin:miter;stroke-miterlimit:4;stroke-dasharray:none;stroke-dashoffset:0;stroke-opacity:1"
           d="m 332.07964,268.1211 11.99208,2.08929"
           id="path5783-9" /><path
           style="display:inline;fill:none;fill-opacity:1;fill-rule:evenodd;stroke:#ffffff;stroke-width:1.54233348;stroke-linecap:butt;stroke-linejoin:miter;stroke-miterlimit:4;stroke-dasharray:none;stroke-dashoffset:0;stroke-opacity:1"
           d="m 332.8465,259.66541 12.1784,-0.0247"
           id="path5781-5" /><path
           style="display:inline;fill:none;fill-opacity:1;fill-rule:evenodd;stroke:#ffffff;stroke-width:1.54233348;stroke-linecap:butt;stroke-linejoin:miter;stroke-miterlimit:4;stroke-dasharray:none;stroke-dashoffset:0;stroke-opacity:1"
           d="m 332.04588,251.21277 11.98295,-2.13816"
           id="path5779-4" /><path
           style="display:inline;fill:none;fill-opacity:1;fill-rule:evenodd;stroke:#ffffff;stroke-width:1.54233348;stroke-linecap:butt;stroke-linejoin:miter;stroke-miterlimit:4;stroke-dasharray:none;stroke-dashoffset:0;stroke-opacity:1"
           d="m 329.8261,243.02231 11.4154,-4.18129"
           id="path5777-7" /><path
           style="display:inline;fill:none;fill-opacity:1;fill-rule:evenodd;stroke:#ffffff;stroke-width:1.54233348;stroke-linecap:butt;stroke-linejoin:miter;stroke-miterlimit:4;stroke-dasharray:none;stroke-dashoffset:0;stroke-opacity:1"
           d="m 326.22543,235.33869 10.5289,-6.10756"
           id="path5775-1" /><path
           style="display:inline;fill:none;fill-opacity:1;fill-rule:evenodd;stroke:#ffffff;stroke-width:1.54233348;stroke-linecap:butt;stroke-linejoin:miter;stroke-miterlimit:4;stroke-dasharray:none;stroke-dashoffset:0;stroke-opacity:1"
           d="m 321.35976,228.38454 9.30406,-7.83947"
           id="path5773-1" /><path
           style="display:inline;fill:none;fill-opacity:1;fill-rule:evenodd;stroke:#ffffff;stroke-width:1.54233348;stroke-linecap:butt;stroke-linejoin:miter;stroke-miterlimit:4;stroke-dasharray:none;stroke-dashoffset:0;stroke-opacity:1"
           d="m 315.34516,222.39369 7.79887,-9.33297"
           id="path5771-7" /><path
           style="display:inline;fill:none;fill-opacity:1;fill-rule:evenodd;stroke:#ffffff;stroke-width:1.54233348;stroke-linecap:butt;stroke-linejoin:miter;stroke-miterlimit:4;stroke-dasharray:none;stroke-dashoffset:0;stroke-opacity:1"
           d="m 308.36583,217.56559 6.06326,-10.55157"
           id="path5769-9" /><path
           style="display:inline;fill:none;fill-opacity:1;fill-rule:evenodd;stroke:#ffffff;stroke-width:1.54233348;stroke-linecap:butt;stroke-linejoin:miter;stroke-miterlimit:4;stroke-dasharray:none;stroke-dashoffset:0;stroke-opacity:1"
           d="m 300.6735,213.98512 4.13403,-11.43075"
           id="path5639-4" /><path
           style="font-style:normal;font-variant:normal;font-weight:normal;font-stretch:normal;font-size:30px;font-family:Arial;-inkscape-font-specification:Arial;display:inline;fill:#ffffff;fill-opacity:1;stroke:none;stroke-width:1px;stroke-linecap:butt;stroke-linejoin:miter;stroke-opacity:1"
           d="m 279.71458,223.9184 -0.0225,-11.04031 1.49865,-0.003 5.8165,8.65624 -0.0177,-8.66808 1.40075,-0.003 0.0225,11.04031 -1.49865,0.003 -5.81651,-8.66377 0.0177,8.67561 -1.40075,0.003"
           id="text5666-8" /><path
           style="font-style:normal;font-variant:normal;font-weight:normal;font-stretch:normal;font-size:30px;font-family:Arial;-inkscape-font-specification:Arial;display:inline;fill:#ffffff;fill-opacity:1;stroke:none;stroke-width:1px;stroke-linecap:butt;stroke-linejoin:miter;stroke-opacity:1"
           d="m 288.58363,299.5073 -1.37841,0.11768 c -0.0641,-0.55241 -0.21382,-1.00708 -0.44906,-1.36401 -0.24028,-0.35194 -0.61122,-0.63888 -1.11283,-0.86081 -0.50162,-0.21691 -1.06621,-0.326 -1.69379,-0.32729 -0.55728,-9.2e-4 -1.04947,0.0807 -1.47656,0.24551 -0.42709,0.16481 -0.74385,0.39009 -0.95029,0.67584 -0.21145,0.29076 -0.31752,0.60685 -0.31823,0.94825 -8.4e-4,0.34642 0.0991,0.64786 0.29939,0.90433 0.2003,0.26148 0.53121,0.48054 0.99274,0.65722 0.29599,0.11607 0.95081,0.29564 1.96448,0.5387 1.01366,0.24808 1.7236,0.48048 2.12983,0.6972 0.5266,0.2772 0.92002,0.61941 1.18027,1.02662 0.2552,0.4122 0.38229,0.87185 0.38125,1.37894 -9.1e-4,0.55727 -0.16034,1.07658 -0.47763,1.55792 -0.31729,0.48635 -0.77994,0.85442 -1.38794,1.10422 -0.60801,0.24978 -1.28353,0.37391 -2.02659,0.37241 -0.81835,-0.002 -1.53854,-0.1362 -2.16056,-0.40355 -0.62703,-0.26237 -1.10822,-0.64994 -1.44356,-1.16271 -0.33533,-0.5128 -0.51488,-1.09305 -0.53867,-1.74075 l 1.40096,-0.10257 c 0.0739,0.69801 0.32887,1.22569 0.76492,1.58306 0.43106,0.35733 1.07082,0.53687 1.91929,0.53861 0.88364,0.002 1.52911,-0.16006 1.93645,-0.48556 0.4023,-0.3205 0.60392,-0.70919 0.60486,-1.16605 7.3e-4,-0.39664 -0.14162,-0.72328 -0.42727,-0.9799 -0.28063,-0.25663 -1.01309,-0.52171 -2.19741,-0.79524 -1.18934,-0.26853 -2.0047,-0.50365 -2.44612,-0.70537 -0.64202,-0.29753 -1.11569,-0.67505 -1.42103,-1.13254 -0.30533,-0.45248 -0.45739,-0.97494 -0.45619,-1.56737 10e-4,-0.58741 0.17054,-1.14185 0.50797,-1.6633 0.33744,-0.51644 0.82276,-0.9196 1.45595,-1.20951 0.62816,-0.28489 1.33636,-0.42654 2.12459,-0.42493 0.9991,0.002 1.83724,0.14936 2.51443,0.44194 0.67217,0.29257 1.20095,0.73044 1.58634,1.31362 0.38037,0.58819 0.57984,1.25132 0.59842,1.98939"
           id="text5670-6" /><path
           style="font-style:normal;font-variant:normal;font-weight:normal;font-stretch:normal;font-size:30px;font-family:Arial;-inkscape-font-specification:Arial;display:inline;fill:#ffffff;fill-opacity:1;stroke:none;stroke-width:1px;stroke-linecap:butt;stroke-linejoin:miter;stroke-opacity:1"
           d="m 248.45067,255.66984 -11.04629,-2.90698 0.003,1.49865 7.24063,1.66462 c 0.75848,0.17919 1.51189,0.33329 2.26023,0.4623 -1.17927,0.28356 -1.85922,0.45063 -2.03987,0.50121 l -7.45131,2.11635 0.004,1.76223 5.59117,1.57008 c 1.3865,0.39379 2.68993,0.6773 3.91029,0.85054 -0.69757,0.14199 -1.49798,0.32688 -2.40123,0.55466 l -7.09059,1.7466 0.003,1.46853 11.03413,-3.04997 -0.003,-1.40828 -8.41678,-2.30988 c -0.70328,-0.19437 -1.13528,-0.30897 -1.29602,-0.34378 0.50685,-0.11651 0.9384,-0.22534 1.29465,-0.32647 l 8.40725,-2.35929 -0.003,-1.49112"
           id="text5674-8" /><path
           style="font-style:normal;font-variant:normal;font-weight:normal;font-stretch:normal;font-size:30px;font-family:Arial;-inkscape-font-specification:Arial;display:inline;fill:#ffffff;fill-opacity:1;stroke:none;stroke-width:1px;stroke-linecap:butt;stroke-linejoin:miter;stroke-opacity:1"
           d="m 331.22869,255.42068 -11.04031,0.0225 0.0163,7.98276 1.30285,-0.003 -0.0133,-6.52177 3.38138,-0.007 0.0125,6.10756 1.29532,-0.003 -0.0125,-6.10757 3.75793,-0.008 0.0138,6.77782 1.30284,-0.003 -0.0168,-8.23882"
           id="text5678-8" /><path
           style="font-style:normal;font-variant:normal;font-weight:bold;font-stretch:normal;font-size:28px;font-family:'Arial Narrow';-inkscape-font-specification:'Arial Narrow Bold';display:inline;fill:#ffffff;fill-opacity:1;stroke:none;stroke-width:1px;stroke-linecap:butt;stroke-linejoin:miter;stroke-opacity:1"
           d="m 300.14019,224.45515 0.98601,0.37203 c -0.4855,1.27751 -0.34836,2.13455 0.4114,2.57113 0.41035,0.23581 0.86507,0.26741 1.36418,0.0948 0.50143,-0.17664 0.91091,-0.54124 1.22842,-1.09379 0.29883,-0.52005 0.40116,-1.01791 0.307,-1.49357 -0.0942,-0.47566 -0.34237,-0.82906 -0.7446,-1.06019 -0.17065,-0.0981 -0.40526,-0.17883 -0.70385,-0.24232 l 0.65692,-0.90337 0.13317,0.0927 c 0.44284,0.25449 0.88062,0.32499 1.31333,0.21153 0.43268,-0.11345 0.77978,-0.3977 1.04127,-0.85275 0.24046,-0.41847 0.31728,-0.8202 0.23045,-1.20518 -0.0845,-0.38903 -0.29334,-0.67927 -0.62649,-0.87071 -0.34535,-0.19845 -0.71492,-0.23247 -1.10871,-0.10207 -0.38741,0.12869 -0.76887,0.44453 -1.14438,0.94753 l -0.7838,-0.70981 c 0.55267,-0.69844 1.14015,-1.12829 1.76245,-1.28954 0.62228,-0.16123 1.2158,-0.0796 1.78055,0.24492 0.59317,0.34086 0.9709,0.84976 1.13318,1.52668 0.16226,0.67694 0.0519,1.34856 -0.33092,2.01486 -0.23348,0.4063 -0.52948,0.7145 -0.888,0.92461 -0.35449,0.21246 -0.74154,0.31701 -1.16116,0.31368 0.24582,0.24935 0.41053,0.52234 0.49409,0.81896 0.0836,0.29663 0.0944,0.63521 0.0324,1.01576 -0.0619,0.38054 -0.20382,0.7638 -0.42561,1.14978 -0.4716,0.8207 -1.09973,1.3542 -1.88438,1.60049 -0.78232,0.24222 -1.51071,0.16956 -2.18514,-0.21799 -0.62569,-0.35954 -1.02516,-0.89174 -1.1984,-1.59659 -0.17325,-0.70485 -0.0697,-1.45873 0.31059,-2.26164"
           id="text5682-4" /><path
           style="font-style:normal;font-variant:normal;font-weight:bold;font-stretch:normal;font-size:28px;font-family:'Arial Narrow';-inkscape-font-specification:'Arial Narrow Bold';display:inline;fill:#ffffff;fill-opacity:1;stroke:none;stroke-width:1px;stroke-linecap:butt;stroke-linejoin:miter;stroke-opacity:1"
           d="m 323.26545,239.85997 -0.60357,-0.84439 c 0.40864,-0.35081 0.66204,-0.66573 0.76021,-0.94478 0.145,-0.40373 0.11993,-0.7738 -0.0752,-1.11024 -0.30332,-0.52287 -0.87094,-0.75429 -1.70286,-0.69425 -0.7169,0.0529 -1.62371,0.39473 -2.72046,1.02552 0.50903,-0.019 0.95337,0.0699 1.33304,0.26684 0.3837,0.19454 0.67666,0.46611 0.87887,0.81469 0.33622,0.57962 0.36549,1.2371 0.0878,1.97241 -0.2713,0.73701 -0.84674,1.36063 -1.7263,1.87085 -0.59584,0.34563 -1.20045,0.55008 -1.8138,0.61335 -0.60697,0.065 -1.12472,-0.006 -1.55326,-0.21224 -0.42854,-0.20646 -0.76156,-0.51438 -0.99903,-0.92376 -0.42792,-0.7377 -0.44824,-1.53851 -0.0609,-2.4024 0.3873,-0.8639 1.35716,-1.7461 2.90958,-2.64662 1.72266,-0.99928 3.09104,-1.4653 4.10515,-1.39807 1.01814,0.0649 1.74941,0.48036 2.1938,1.24643 0.32211,0.55531 0.40081,1.12992 0.23613,1.72384 -0.1583,0.59563 -0.57469,1.14323 -1.24914,1.64282 m -5.96925,-1.43726 c -0.64448,0.37385 -1.07513,0.82681 -1.29196,1.35887 -0.21278,0.52972 -0.20278,0.99521 0.03,1.3965 0.20456,0.35263 0.5712,0.55978 1.09994,0.62145 0.53108,0.0657 1.11886,-0.0883 1.76335,-0.46219 0.63231,-0.3668 1.04282,-0.78911 1.23153,-1.26694 0.18869,-0.47783 0.16783,-0.91536 -0.0626,-1.31259 -0.22573,-0.38912 -0.59753,-0.62849 -1.1154,-0.71813 -0.51147,-0.0879 -1.06309,0.0397 -1.65488,0.38303"
           id="text5686-1" /><path
           style="font-style:normal;font-variant:normal;font-weight:bold;font-stretch:normal;font-size:26px;font-family:'Arial Narrow';-inkscape-font-specification:'Arial Narrow Bold';display:inline;fill:#ffffff;fill-opacity:1;stroke:none;stroke-width:1px;stroke-linecap:butt;stroke-linejoin:miter;stroke-opacity:1"
           d="m 316.87893,275.10486 0.48127,-0.83754 6.49091,3.72988 c -0.1158,-0.32249 -0.19932,-0.71424 -0.25056,-1.17527 -0.0475,-0.45886 -0.0535,-0.8588 -0.0182,-1.1998 l 0.98467,0.56582 c -2.9e-4,0.61202 0.0891,1.20293 0.26854,1.77276 0.17726,0.57358 0.40579,1.03612 0.68559,1.38761 l -0.31218,0.54326 -8.33008,-4.78672 m -2.77363,7.09308 -0.97901,-0.56256 2.58522,-4.49893 c 0.40264,0.21631 0.77764,0.58988 1.12501,1.1207 0.34519,0.5346 0.65982,1.32764 0.94386,2.37912 0.32842,1.22753 0.63452,2.08343 0.91833,2.56769 0.28756,0.48642 0.61432,0.83477 0.98027,1.04507 0.42254,0.24279 0.83739,0.31557 1.24457,0.21834 0.40877,-0.0913 0.71721,-0.31806 0.92534,-0.68023 0.22328,-0.38859 0.26311,-0.78976 0.11947,-1.20351 -0.14364,-0.41377 -0.48332,-0.77456 -1.01904,-1.0824 l 0.6018,-0.79839 c 0.76134,0.51779 1.23033,1.08588 1.40694,1.70426 0.17821,0.62432 0.0841,1.25527 -0.28224,1.89286 -0.3989,0.69417 -0.93415,1.08416 -1.60573,1.16998 -0.67377,0.0896 -1.30869,-0.0369 -1.90477,-0.37941 -0.52818,-0.30352 -0.9554,-0.73468 -1.28165,-1.29352 -0.32248,-0.55667 -0.66301,-1.45745 -1.02161,-2.70231 -0.22315,-0.79067 -0.38488,-1.31268 -0.4852,-1.56604 -0.10248,-0.24959 -0.22014,-0.47277 -0.35296,-0.66954 l -1.9186,3.33882"
           id="text5690-3" /><path
           style="font-style:normal;font-variant:normal;font-weight:bold;font-stretch:normal;font-size:28px;font-family:'Arial Narrow';-inkscape-font-specification:'Arial Narrow Bold';display:inline;fill:#ffffff;fill-opacity:1;stroke:none;stroke-width:1px;stroke-linecap:butt;stroke-linejoin:miter;stroke-opacity:1"
           d="m 305.21746,289.12582 0.89984,-0.52197 4.0453,6.97374 c 0.0656,-0.36312 0.19869,-0.77346 0.39915,-1.23102 0.20281,-0.45352 0.41251,-0.82977 0.62912,-1.12876 l 0.61367,1.05792 c -0.32993,0.57057 -0.56462,1.16989 -0.70411,1.79795 -0.14354,0.63039 -0.17946,1.18483 -0.10777,1.6633 l -0.58367,0.33858 -5.19153,-8.94974 m -0.93177,3.66081 -0.88597,0.64395 c -0.40213,-0.52516 -0.81199,-0.8535 -1.22959,-0.98505 -0.41929,-0.12515 -0.79918,-0.089 -1.13966,0.10854 -0.4256,0.24687 -0.67956,0.65422 -0.7619,1.22204 -0.08,0.57186 0.0764,1.19624 0.46901,1.87315 0.36915,0.63636 0.8048,1.04185 1.30695,1.21645 0.50045,0.181 0.97563,0.141 1.42555,-0.11998 0.27157,-0.15754 0.48226,-0.38268 0.63206,-0.67542 0.14809,-0.28635 0.21228,-0.60529 0.19256,-0.9568 l 0.92271,-0.35646 1.94437,4.99086 -3.62976,2.10554 -0.60662,-1.04576 2.91232,-1.68936 -0.99438,-2.62476 c -0.2174,0.62448 -0.56929,1.0778 -1.05569,1.35995 -0.61205,0.35503 -1.29469,0.4016 -2.04792,0.13972 -0.75493,-0.2555 -1.38868,-0.82505 -1.90125,-1.70867 -0.50551,-0.87147 -0.71233,-1.75097 -0.62045,-2.63852 0.0902,-0.88115 0.51628,-1.54274 1.27831,-1.98477 0.63232,-0.36679 1.29432,-0.45827 1.98601,-0.27445 0.68999,0.19023 1.2911,0.65683 1.80334,1.3998"
           id="text5694-2" /><path
           style="font-style:normal;font-variant:normal;font-weight:bold;font-stretch:normal;font-size:28px;font-family:'Arial Narrow';-inkscape-font-specification:'Arial Narrow Bold';display:inline;fill:#ffffff;fill-opacity:1;stroke:none;stroke-width:1px;stroke-linecap:butt;stroke-linejoin:miter;stroke-opacity:1"
           d="m 265.74869,292.32851 0.60584,-1.05433 4.845,2.78409 c -0.23295,0.4336 -0.63525,0.83745 -1.20691,1.21154 -0.57572,0.37175 -1.42976,0.71058 -2.56213,1.01648 -1.32195,0.35367 -2.24369,0.68332 -2.7652,0.98895 -0.52384,0.30969 -0.89899,0.66158 -1.12546,1.05569 -0.26147,0.45503 -0.33985,0.9018 -0.23513,1.3403 0.0983,0.44021 0.34252,0.77238 0.73254,0.99652 0.41849,0.24046 0.85052,0.28335 1.2961,0.12867 0.44559,-0.1547 0.83414,-0.52051 1.16566,-1.09744 l 0.8598,0.64809 c -0.55762,0.81991 -1.16941,1.32497 -1.83536,1.51518 -0.67234,0.19191 -1.35183,0.0906 -2.03847,-0.30395 -0.74756,-0.42959 -1.16755,-1.00601 -1.25997,-1.72926 -0.0965,-0.7256 0.0397,-1.40936 0.40859,-2.05129 0.32687,-0.56881 0.7912,-1.02889 1.39302,-1.38023 0.5995,-0.34729 1.56956,-0.71402 2.9102,-1.10021 0.85148,-0.24031 1.41364,-0.41448 1.68649,-0.52251 0.26879,-0.11037 0.50914,-0.23707 0.72104,-0.38012 l -3.59565,-2.06617 m -3.72114,-3.54075 0.90196,0.5183 -4.01678,6.9902 c 0.34729,-0.12471 0.76918,-0.21465 1.26567,-0.26983 0.49416,-0.0511 0.92486,-0.0576 1.29209,-0.0195 l -0.60934,1.06042 c -0.6591,-2e-4 -1.29547,0.096 -1.90913,0.2892 -0.61771,0.19089 -1.11582,0.437 -1.49435,0.73832 l -0.58506,-0.33619 5.15494,-8.97087"
           id="text5698-6" /><path
           style="font-style:normal;font-variant:normal;font-weight:bold;font-stretch:normal;font-size:28px;font-family:'Arial Narrow';-inkscape-font-specification:'Arial Narrow Bold';display:inline;fill:#ffffff;fill-opacity:1;stroke:none;stroke-width:1px;stroke-linecap:butt;stroke-linejoin:miter;stroke-opacity:1"
           d="m 252.16901,278.52553 1.05184,-0.61015 2.80385,4.83359 c -0.41855,0.25904 -0.96887,0.40763 -1.65099,0.44578 -0.68446,0.0341 -1.5935,-0.0995 -2.72711,-0.40077 -1.32168,-0.35469 -2.28475,-0.53007 -2.88921,-0.52614 -0.6085,0.006 -1.10933,0.12345 -1.50252,0.35152 -0.45396,0.26333 -0.74522,0.61106 -0.87378,1.04316 -0.13495,0.43041 -0.0896,0.84017 0.13614,1.22929 0.24219,0.41749 0.59489,0.67064 1.05812,0.75947 0.46324,0.0888 0.98265,-0.0337 1.55821,-0.36757 l 0.42056,0.99117 c -0.89286,0.43125 -1.67521,0.56275 -2.34705,0.39449 -0.67823,-0.16997 -1.21602,-0.59745 -1.61339,-1.28246 -0.43262,-0.74581 -0.50813,-1.455 -0.22655,-2.12757 0.27926,-0.67662 0.73909,-1.20067 1.3795,-1.57217 0.56748,-0.32917 1.19965,-0.49544 1.89651,-0.4988 0.69282,-0.001 1.71629,0.16642 3.0704,0.50229 0.85757,0.21762 1.43151,0.34787 1.72181,0.39073 0.28796,0.0389 0.55946,0.0492 0.81451,0.0313 l -2.08085,-3.5872 m -1.1595,-4.42229 -2.13407,1.23792 1.83749,3.16767 -1.0032,0.58193 -7.71223,0.0127 -0.42322,-0.72959 5.77598,-3.35051 -0.57487,-0.99104 1.00319,-0.58193 0.57488,0.99103 2.13408,-1.23792 0.52197,0.89984 m -3.13727,1.81985 -4.01887,2.33126 5.34497,-0.0452 -1.3261,-2.28607"
           id="text5702-9" /><path
           style="font-style:normal;font-variant:normal;font-weight:bold;font-stretch:normal;font-size:28px;font-family:'Arial Narrow';-inkscape-font-specification:'Arial Narrow Bold';display:inline;fill:#ffffff;fill-opacity:1;stroke:none;stroke-width:1px;stroke-linecap:butt;stroke-linejoin:miter;stroke-opacity:1"
           d="m 247.53608,246.18931 0.37203,-0.98601 c 1.27751,0.48549 2.13455,0.34836 2.57113,-0.41141 0.23581,-0.41035 0.26742,-0.86507 0.0948,-1.36418 -0.17665,-0.50143 -0.54125,-0.9109 -1.0938,-1.22842 -0.52005,-0.29883 -1.01791,-0.40116 -1.49357,-0.30699 -0.47566,0.0942 -0.82906,0.34237 -1.06019,0.74459 -0.0981,0.17065 -0.17883,0.40526 -0.24232,0.70385 l -0.90337,-0.65692 0.0927,-0.13316 c 0.25448,-0.44285 0.32499,-0.88063 0.21153,-1.31333 -0.11345,-0.43269 -0.3977,-0.77979 -0.85275,-1.04128 -0.41847,-0.24046 -0.8202,-0.31728 -1.20518,-0.23045 -0.38903,0.0845 -0.67927,0.29334 -0.87072,0.62649 -0.19844,0.34535 -0.23246,0.71492 -0.10206,1.10871 0.12868,0.38741 0.44453,0.76887 0.94753,1.14438 l -0.70981,0.78381 c -0.69845,-0.55268 -1.12829,-1.14016 -1.28954,-1.76246 -0.16123,-0.62228 -0.0796,-1.2158 0.24492,-1.78054 0.34087,-0.59318 0.84976,-0.97091 1.52668,-1.13319 0.67693,-0.16226 1.34855,-0.052 2.01486,0.33092 0.4063,0.23348 0.7145,0.52948 0.92461,0.888 0.21246,0.35449 0.31702,0.74154 0.31367,1.16117 0.24936,-0.24584 0.52235,-0.41054 0.81897,-0.4941 0.29662,-0.0836 0.63521,-0.0944 1.01575,-0.0324 0.38055,0.062 0.76382,0.20382 1.14979,0.42561 0.8207,0.4716 1.3542,1.09973 1.60049,1.88439 0.24222,0.78232 0.16956,1.5107 -0.218,2.18514 -0.35953,0.62568 -0.89173,1.02515 -1.59658,1.19839 -0.70485,0.17325 -1.45874,0.0697 -2.26164,-0.31059 m 1.22666,-6.87488 c -1.4992,-0.86148 -2.51921,-1.71513 -3.06003,-2.56095 -0.53848,-0.84987 -0.58125,-1.6689 -0.12834,-2.45711 0.40157,-0.69881 1.03076,-1.06957 1.88757,-1.11226 1.03587,-0.0533 2.38465,0.3975 4.04637,1.35237 1.49108,0.85683 2.50906,1.70931 3.05394,2.55745 0.54082,0.84581 0.5836,1.66486 0.12834,2.45712 -0.40156,0.69881 -1.07203,1.07557 -2.01141,1.13026 -0.93704,0.0506 -2.24252,-0.40499 -3.91644,-1.36688 m 0.52881,-0.92024 c 1.45046,0.83348 2.5029,1.25449 3.15732,1.26304 0.6527,0.002 1.10395,-0.21413 1.35377,-0.64886 0.2358,-0.41035 0.18321,-0.89724 -0.15777,-1.46069 -0.34098,-0.56343 -1.2306,-1.25839 -2.66886,-2.08487 -1.45451,-0.8358 -2.50813,-1.25478 -3.16083,-1.25694 -0.65036,-0.006 -1.10278,0.21211 -1.35726,0.65496 -0.23346,0.40629 -0.17971,0.89115 0.16126,1.45459 0.34332,0.55938 1.2341,1.2523 2.67237,2.07877"
           id="text5706-0" /><path
           style="font-style:normal;font-variant:normal;font-weight:bold;font-stretch:normal;font-size:28px;font-family:'Arial Narrow';-inkscape-font-specification:'Arial Narrow Bold';display:inline;fill:#ffffff;fill-opacity:1;stroke:none;stroke-width:1px;stroke-linecap:butt;stroke-linejoin:miter;stroke-opacity:1"
           d="m 259.59021,229.31475 0.8152,-0.66789 c 0.86361,1.05921 1.67439,1.36896 2.43236,0.92928 0.40939,-0.23747 0.66413,-0.61547 0.76422,-1.134 0.0977,-0.52257 -0.0133,-1.05948 -0.33304,-1.61074 -0.30096,-0.51882 -0.68095,-0.85637 -1.13997,-1.01265 -0.45902,-0.15627 -0.88918,-0.11802 -1.29045,0.11474 -0.17025,0.0988 -0.35751,0.26156 -0.56178,0.4884 l -0.45389,-1.0206 0.14689,-0.069 c 0.44181,-0.25627 0.72177,-0.60014 0.83986,-1.03161 0.11809,-0.43145 0.0455,-0.87416 -0.21787,-1.32814 -0.24217,-0.41749 -0.55167,-0.68488 -0.92849,-0.80217 -0.37916,-0.12133 -0.73493,-0.0856 -1.06731,0.1072 -0.34453,0.19986 -0.55878,0.5029 -0.64274,0.90914 -0.0823,0.39985 7.9e-4,0.88812 0.2484,1.46483 l -1.00662,0.32388 c -0.32854,-0.82785 -0.40706,-1.55155 -0.23555,-2.1711 0.17151,-0.61953 0.53897,-1.09271 1.10238,-1.41954 0.59179,-0.34327 1.22136,-0.41594 1.88874,-0.21802 0.66737,0.19794 1.19386,0.62928 1.57946,1.29402 0.23512,0.40534 0.35403,0.81578 0.35673,1.23133 0.007,0.41322 -0.0962,0.8007 -0.30893,1.16244 0.33887,-0.0882 0.65763,-0.0944 0.9563,-0.0184 0.29865,0.0759 0.59728,0.23589 0.89587,0.4798 0.2986,0.24393 0.55957,0.55842 0.78294,0.94348 0.47495,0.81877 0.62291,1.6295 0.44387,2.43217 -0.18139,0.79862 -0.6085,1.39309 -1.28135,1.78339 -0.62422,0.36209 -1.28484,0.44194 -1.98189,0.23955 -0.69704,-0.20239 -1.29816,-0.66899 -1.80334,-1.3998 m 5.69087,-3.30113 0.81519,-0.6679 c 0.86361,1.0592 1.6744,1.36896 2.43237,0.92928 0.40939,-0.23747 0.66412,-0.61547 0.76422,-1.134 0.0977,-0.52257 -0.0133,-1.05948 -0.33304,-1.61074 -0.30097,-0.51882 -0.68096,-0.85637 -1.13998,-1.01265 -0.45902,-0.15627 -0.88917,-0.11802 -1.29045,0.11474 -0.17024,0.0988 -0.3575,0.26156 -0.56178,0.4884 l -0.45388,-1.0206 0.14689,-0.069 c 0.44181,-0.25627 0.72177,-0.60014 0.83986,-1.03161 0.11809,-0.43145 0.0455,-0.87416 -0.21787,-1.32814 -0.24218,-0.41748 -0.55167,-0.68488 -0.92849,-0.80217 -0.37916,-0.12133 -0.73493,-0.0856 -1.06731,0.10719 -0.34453,0.19987 -0.55878,0.50292 -0.64274,0.90915 -0.0823,0.39985 7.8e-4,0.88812 0.24839,1.46483 l -1.00661,0.32388 c -0.32854,-0.82785 -0.40706,-1.55155 -0.23555,-2.1711 0.17151,-0.61952 0.53897,-1.09271 1.10238,-1.41954 0.59178,-0.34327 1.22136,-0.41594 1.88873,-0.21802 0.66737,0.19794 1.19386,0.62928 1.57946,1.29402 0.23513,0.40534 0.35404,0.81578 0.35674,1.23133 0.007,0.41322 -0.0962,0.8007 -0.30893,1.16243 0.33886,-0.0882 0.65762,-0.0943 0.95629,-0.0184 0.29866,0.076 0.59729,0.23588 0.89588,0.4798 0.29859,0.24392 0.55957,0.55842 0.78294,0.94347 0.47494,0.81878 0.6229,1.62951 0.44387,2.43218 -0.18139,0.79862 -0.60851,1.39309 -1.28136,1.78339 -0.62421,0.36209 -1.28484,0.44194 -1.98188,0.23955 -0.69705,-0.20239 -1.29816,-0.66899 -1.80334,-1.3998"
           id="text5710-0" /></g></g></g><g
     id="airspeedIndicatorHand"
     style="display:inline"
     transform="matrix(2.2213481,0,0,2.2213481,-86.85814,-4.9720701)" /><g
     id="airspeedIndicatorFg"
     style="display:inline"
     transform="matrix(2.2213481,0,0,2.2213481,-86.85814,-4.9720701)" /></svg>