<?xml version="1.0" encoding="UTF-8" standalone="no"?>
<svg
   xmlns:osb="http://www.openswatchbook.org/uri/2009/osb"
   xmlns:dc="http://purl.org/dc/elements/1.1/"
   xmlns:cc="http://creativecommons.org/ns#"
   xmlns:rdf="http://www.w3.org/1999/02/22-rdf-syntax-ns#"
   xmlns:svg="http://www.w3.org/2000/svg"
   xmlns="http://www.w3.org/2000/svg"
   version="1.1"
   id="Layer_2"
   x="0px"
   y="0px"
   width="400.66699"
   height="400.66599"
   viewBox="0 0 400.667 400.666"
   enable-background="new 0 0 400.667 400.666"
   xml:space="preserve"><metadata
     id="metadata111"><rdf:RDF><cc:Work
         rdf:about=""><dc:format>image/svg+xml</dc:format><dc:type
           rdf:resource="http://purl.org/dc/dcmitype/StillImage" /><dc:title></dc:title></cc:Work></rdf:RDF></metadata><defs
     id="defs109"><linearGradient
       id="linearGradient5786"
       osb:paint="gradient"><stop
         style="stop-color:#363636;stop-opacity:1;"
         offset="0"
         id="stop5788" /><stop
         style="stop-color:#000000;stop-opacity:1;"
         offset="1"
         id="stop5790" /></linearGradient><filter
       height="1.4839005"
       y="-0.24195024"
       width="1.1197587"
       x="-0.059879337"
       id="filter8286"
       style="color-interpolation-filters:sRGB"><feGaussianBlur
         id="feGaussianBlur8288"
         stdDeviation="4.452458" /></filter></defs><g
     transform="matrix(1.1106743,0,0,1.1106743,-42.015864,34.945301)"
     style="display:inline"
     id="g8303"><path
       id="path4623-5"
       d="m 214.82009,114.48035 0,17.27091 -29.88453,0 0,4.2348 23.87307,0.90424 0.0272,0.18638 c -1.94661,2.13009 -3.12716,4.85152 -3.34424,7.72896 l -76.36739,1.29442 3e-5,3.7 78.42118,2.9663 c 2.37467,3.66212 6.44499,5.87502 10.80966,5.87966 4.36462,-0.004 8.43048,-2.21754 10.80512,-5.87966 l 78.42122,-2.9663 -3e-5,-3.7 -76.36739,-1.29442 c -0.21707,-2.87744 -1.39308,-5.59886 -3.33967,-7.72896 l 0.0272,-0.1864 23.86847,-0.90424 1e-5,-4.2348 -29.87993,0 1e-5,-17.27091 -3.53508,0 -3.53505,0 z"
       style="display:inline;fill:#000000;fill-opacity:1;stroke:none;stroke-width:0.1;stroke-miterlimit:4;stroke-dasharray:none;stroke-dashoffset:0;stroke-opacity:1;filter:url(#filter8286)" /><path
       id="path4623"
       d="m 214.82023,114.48029 0,17.27091 -29.88453,0 0,4.2348 23.87307,0.90424 0.0272,0.18638 c -1.94661,2.13009 -3.12716,4.85152 -3.34424,7.72896 l -76.36739,1.29442 3e-5,3.7 78.42118,2.9663 c 2.37467,3.66212 6.44499,5.87502 10.80966,5.87966 4.36462,-0.004 8.43048,-2.21754 10.80512,-5.87966 l 78.42122,-2.9663 -3e-5,-3.7 -76.36739,-1.29442 c -0.21707,-2.87744 -1.39308,-5.59886 -3.33967,-7.72896 l 0.0272,-0.1864 23.86847,-0.90424 1e-5,-4.2348 -29.87993,0 1e-5,-17.27091 -3.53508,0 -3.53505,0 z"
       style="display:inline;fill:#ffffff;fill-opacity:1;stroke:none;stroke-width:0.1;stroke-miterlimit:4;stroke-dasharray:none;stroke-dashoffset:0;stroke-opacity:1" /></g></svg>