<?xml version="1.0" encoding="UTF-8" standalone="no"?>
<svg
   xmlns:osb="http://www.openswatchbook.org/uri/2009/osb"
   xmlns:dc="http://purl.org/dc/elements/1.1/"
   xmlns:cc="http://creativecommons.org/ns#"
   xmlns:rdf="http://www.w3.org/1999/02/22-rdf-syntax-ns#"
   xmlns:svg="http://www.w3.org/2000/svg"
   xmlns="http://www.w3.org/2000/svg"
   xmlns:xlink="http://www.w3.org/1999/xlink"
   version="1.1"
   id="Layer_2"
   x="0px"
   y="0px"
   width="400.66699"
   height="400.66599"
   viewBox="0 0 400.667 400.666"
   enable-background="new 0 0 400.667 400.666"
   xml:space="preserve"><metadata
     id="metadata111"><rdf:RDF><cc:Work
         rdf:about=""><dc:format>image/svg+xml</dc:format><dc:type
           rdf:resource="http://purl.org/dc/dcmitype/StillImage" /><dc:title></dc:title></cc:Work></rdf:RDF></metadata><defs
     id="defs109"><linearGradient
       id="linearGradient5786"
       osb:paint="gradient"><stop
         style="stop-color:#363636;stop-opacity:1;"
         offset="0"
         id="stop5788" /><stop
         style="stop-color:#000000;stop-opacity:1;"
         offset="1"
         id="stop5790" /></linearGradient><radialGradient
       gradientTransform="matrix(1.9720263,0,0,1.9720263,-361.57268,26.138984)"
       gradientUnits="userSpaceOnUse"
       r="2.1655145"
       fy="124.89909"
       fx="276.83231"
       cy="124.89909"
       cx="276.83231"
       id="radialGradient14809"
       xlink:href="#linearGradient14803" /><linearGradient
       id="linearGradient14803"><stop
         id="stop14805"
         offset="0"
         style="stop-color:#7d7d7d;stop-opacity:1" /><stop
         id="stop14807"
         offset="1"
         style="stop-color:#000000;stop-opacity:0.98431373" /></linearGradient><radialGradient
       gradientTransform="matrix(1.9720263,0,0,1.9720263,-329.26268,26.139851)"
       gradientUnits="userSpaceOnUse"
       r="2.1655145"
       fy="124.89909"
       fx="276.83231"
       cy="124.89909"
       cx="276.83231"
       id="radialGradient14809-1"
       xlink:href="#linearGradient14803" /><radialGradient
       gradientTransform="matrix(1.9720263,0,0,1.9720263,-361.57316,26.139529)"
       gradientUnits="userSpaceOnUse"
       r="2.1655145"
       fy="124.89909"
       fx="276.83231"
       cy="124.89909"
       cx="276.83231"
       id="radialGradient14809-3"
       xlink:href="#linearGradient14803" /><radialGradient
       gradientTransform="matrix(1.9720263,0,0,1.9720263,-329.26317,26.140395)"
       gradientUnits="userSpaceOnUse"
       r="2.1655145"
       fy="124.89909"
       fx="276.83231"
       cy="124.89909"
       cx="276.83231"
       id="radialGradient14809-1-2"
       xlink:href="#linearGradient14803" /><radialGradient
       gradientUnits="userSpaceOnUse"
       gradientTransform="matrix(4.7923686,-0.0050082,0.00464804,4.4477595,-403.11893,-1005.7128)"
       r="64.547997"
       fy="259.69098"
       fx="129.436"
       cy="259.69098"
       cx="129.436"
       id="radialGradient5110"
       xlink:href="#linearGradient5104" /><linearGradient
       id="linearGradient5104"><stop
         id="stop5106"
         offset="0"
         style="stop-color:#373737;stop-opacity:1" /><stop
         id="stop5108"
         offset="1"
         style="stop-color:#000000;stop-opacity:1" /></linearGradient><filter
       height="1.7476282"
       y="-0.37381411"
       width="1.0325587"
       x="-0.01627937"
       id="filter7925-7"
       style="color-interpolation-filters:sRGB"><feGaussianBlur
         id="feGaussianBlur7927-0"
         stdDeviation="0.91571458" /></filter><linearGradient
       gradientUnits="userSpaceOnUse"
       y2="306.00647"
       x2="182.67029"
       y1="222.21432"
       x1="99.359451"
       id="linearGradient6158-9"
       xlink:href="#linearGradient6152"
       gradientTransform="matrix(1.9999996,0,0,1.9999996,-40.810395,-370.69979)" /><linearGradient
       id="linearGradient6152"><stop
         id="stop6154"
         offset="0"
         style="stop-color:#302f2e;stop-opacity:1" /><stop
         id="stop6156"
         offset="1"
         style="stop-color:#c4c4c4;stop-opacity:1" /></linearGradient><filter
       height="1.7476282"
       y="-0.37381411"
       width="1.0325587"
       x="-0.01627937"
       id="filter7925"
       style="color-interpolation-filters:sRGB"><feGaussianBlur
         id="feGaussianBlur7927"
         stdDeviation="0.91571458" /></filter></defs><circle
     style="display:inline;opacity:1;fill:url(#radialGradient14809);fill-opacity:1;stroke:none;stroke-width:0.5;stroke-miterlimit:4;stroke-dasharray:none;stroke-dashoffset:0;stroke-opacity:1"
     id="path14799"
     cx="184.34793"
     cy="272.4433"
     r="0" /><circle
     style="display:inline;opacity:1;fill:url(#radialGradient14809-1);fill-opacity:1;stroke:none;stroke-width:0.5;stroke-miterlimit:4;stroke-dasharray:none;stroke-dashoffset:0;stroke-opacity:1"
     id="path14799-8"
     cx="216.65788"
     cy="272.44415"
     r="0" /><circle
     style="display:inline;opacity:1;fill:url(#radialGradient14809-3);fill-opacity:1;stroke:none;stroke-width:0.5;stroke-miterlimit:4;stroke-dasharray:none;stroke-dashoffset:0;stroke-opacity:1"
     id="path14799-9"
     cx="184.34746"
     cy="272.44385"
     r="0" /><circle
     style="display:inline;opacity:1;fill:url(#radialGradient14809-1-2);fill-opacity:1;stroke:none;stroke-width:0.5;stroke-miterlimit:4;stroke-dasharray:none;stroke-dashoffset:0;stroke-opacity:1"
     id="path14799-8-7"
     cx="216.65741"
     cy="272.4447"
     r="0" /><g
     transform="matrix(1.1106743,0,0,1.1106743,-42.015864,34.945301)"
     style="display:inline"
     id="g10902"><path
       style="fill:none;fill-rule:evenodd;stroke:#000000;stroke-width:2;stroke-linecap:butt;stroke-linejoin:miter;stroke-miterlimit:4;stroke-dasharray:none;stroke-opacity:1"
       d="m 234.31516,182.18187 c 1.12606,13.91318 0.98504,26.64785 0.44194,37.38827"
       id="path5208" /><path
       style="fill:none;fill-rule:evenodd;stroke:#000000;stroke-width:1.99999964px;stroke-linecap:butt;stroke-linejoin:miter;stroke-opacity:1"
       d="m 201.99942,182.18193 c -1.12606,13.91318 -0.98504,26.64785 -0.44194,37.38827"
       id="path5208-3" /><path
       style="display:inline;opacity:1;fill:url(#radialGradient5110);fill-opacity:1;stroke:none;stroke-width:1;stroke-miterlimit:4;stroke-dasharray:none;stroke-dashoffset:0;stroke-opacity:1"
       d="M 218.39122,9.274284 C 147.64725,9.275244 79.691565,77.93803 79.690587,148.682 79.691555,219.42598 147.64724,287.02811 218.39122,287.02907 289.13673,287.03025 354.97345,219.4275 354.97441,148.682 354.97343,77.93651 289.13671,9.273104 218.39122,9.274284 Z m 0,47.85905 c 50.56113,-4.8e-4 91.54914,40.987532 91.54866,91.548666 6.4e-4,50.56125 -40.98741,91.54944 -91.54866,91.54896 -50.56131,5.6e-4 -91.54946,-40.98765 -91.54882,-91.54896 -4.8e-4,-50.561194 40.98763,-91.549226 91.54882,-91.548666 z"
       id="path4414-9-5" /><path
       style="display:inline;opacity:1;fill:none;fill-rule:evenodd;stroke:#ffffff;stroke-width:1px;stroke-linecap:butt;stroke-linejoin:miter;stroke-opacity:1;filter:url(#filter7925-7)"
       d="m 150.91509,210.4192 c 44.14746,6.67821 88.8613,8.91984 135,0"
       id="path7835-3" /><path
       style="display:inline;opacity:1;fill:none;fill-opacity:1;stroke:url(#linearGradient6158-9);stroke-width:1.99999964;stroke-miterlimit:4;stroke-dasharray:none;stroke-dashoffset:0;stroke-opacity:1"
       d="M 218.05962,57.133374 A 91.547788,91.547788 0 0 1 309.60828,148.68204 91.547788,91.547788 0 0 1 218.05962,240.231 91.547788,91.547788 0 0 1 126.51081,148.68204 91.547788,91.547788 0 0 1 218.05962,57.133374 Z"
       id="path4414-9-5-0" /><rect
       y="145.19563"
       x="108.41265"
       height="6.7885728"
       width="16.82275"
       id="rect4826"
       style="fill:#ffffff;fill-opacity:1;stroke:#ffffff;stroke-width:0.6589219;stroke-miterlimit:4;stroke-dasharray:none;stroke-dashoffset:0;stroke-opacity:1" /><rect
       y="145.196"
       x="310.95062"
       height="6.7885728"
       width="16.82275"
       id="rect4826-1"
       style="display:inline;fill:#ffffff;fill-opacity:1;stroke:#ffffff;stroke-width:0.6589219;stroke-miterlimit:4;stroke-dasharray:none;stroke-dashoffset:0;stroke-opacity:1" /><rect
       transform="matrix(0.95211233,0.30574844,-0.30574844,0.95211233,0,0)"
       y="73.168472"
       x="345.4978"
       height="4.7746472"
       width="16.82275"
       id="rect4826-1-7"
       style="display:inline;fill:#ffffff;fill-opacity:1;stroke:#ffffff;stroke-width:0.6589219;stroke-miterlimit:4;stroke-dasharray:none;stroke-dashoffset:0;stroke-opacity:1" /><rect
       transform="matrix(-0.95211233,0.30574844,0.30574844,0.95211233,0,0)"
       y="206.53114"
       x="-69.798668"
       height="4.7747273"
       width="16.82275"
       id="rect4826-1-7-9"
       style="display:inline;fill:#ffffff;fill-opacity:1;stroke:#ffffff;stroke-width:0.6589219;stroke-miterlimit:4;stroke-dasharray:none;stroke-dashoffset:0;stroke-opacity:1" /><path
       id="path6756"
       d="m 120.59471,205.95678 0,-16.61851 3.38314,0 0,13.79542 8.41212,0 0,2.82309 -11.79526,0 z"
       style="font-style:normal;font-variant:normal;font-weight:bold;font-stretch:normal;font-size:medium;line-height:125%;font-family:Arial;-inkscape-font-specification:'Arial Bold';letter-spacing:0px;word-spacing:0px;fill:#ffffff;fill-opacity:1;stroke:none;stroke-width:1px;stroke-linecap:butt;stroke-linejoin:miter;stroke-opacity:1" /><path
       id="path6759"
       d="m 303.57114,205.95628 0,-16.75565 7.12058,0 q 2.68594,0 3.89748,0.45718 1.22296,0.44574 1.95444,1.60014 0.7315,1.15438 0.7315,2.6402 0,1.88588 -1.10868,3.12026 -1.10866,1.22296 -3.31456,1.543 1.09724,0.64004 1.80588,1.40582 0.72006,0.76578 1.93158,2.72022 l 2.04588,3.26883 -4.04604,0 -2.44592,-3.64599 q -1.30296,-1.95446 -1.783,-2.45736 -0.48004,-0.51432 -1.01724,-0.6972 -0.53718,-0.1942 -1.703,-0.1942 l -0.68576,0 0,6.99485 -3.38314,0 z m 3.38314,-9.66935 2.50306,0 q 2.43448,0 3.04026,-0.20574 0.60576,-0.20572 0.94864,-0.70862 0.34288,-0.5029 0.34288,-1.25726 0,-0.84578 -0.45718,-1.3601 -0.44574,-0.52576 -1.26866,-0.66292 -0.41148,-0.0572 -2.46878,-0.0572 l -2.64022,0 0,4.25178 z"
       style="font-style:normal;font-variant:normal;font-weight:bold;font-stretch:normal;font-size:medium;line-height:125%;font-family:Arial;-inkscape-font-specification:'Arial Bold';letter-spacing:0px;word-spacing:0px;fill:#ffffff;fill-opacity:1;stroke:none;stroke-width:1px;stroke-linecap:butt;stroke-linejoin:miter;stroke-opacity:1" /><path
       d="m 191.64919,252.21942 0,-8.25636 1.62198,0 3.37912,5.51362 0,-5.51362 1.54878,0 0,8.25636 -1.67268,0 -3.32844,-5.3841 0,5.3841 -1.54876,0 z"
       style="font-style:normal;font-variant:normal;font-weight:bold;font-stretch:normal;font-size:5.76705122px;line-height:125%;font-family:Arial;-inkscape-font-specification:'Arial Bold';text-align:center;letter-spacing:0px;word-spacing:0px;text-anchor:middle;fill:#ffffff;fill-opacity:1;stroke:none;stroke-width:1px;stroke-linecap:butt;stroke-linejoin:miter;stroke-opacity:1"
       id="path6762" /><path
       d="m 199.62956,248.14192 q 0,-1.26154 0.37732,-2.11758 0.2816,-0.63078 0.76594,-1.13202 0.48998,-0.50122 1.07006,-0.7434 0.77158,-0.32664 1.77968,-0.32664 1.82474,0 2.91732,1.132 1.09822,1.132 1.09822,3.14822 0,1.99932 -1.08696,3.13134 -1.08696,1.12636 -2.90606,1.12636 -1.84162,0 -2.92858,-1.12074 -1.08694,-1.12638 -1.08694,-3.09754 z m 1.71772,-0.0564 q 0,1.40234 0.64766,2.12886 0.64768,0.72088 1.64452,0.72088 0.99684,0 1.63324,-0.71524 0.64204,-0.72088 0.64204,-2.15702 0,-1.41924 -0.62514,-2.11758 -0.6195,-0.69836 -1.65014,-0.69836 -1.03064,0 -1.66142,0.70962 -0.63076,0.70398 -0.63076,2.12884 z"
       style="font-style:normal;font-variant:normal;font-weight:bold;font-stretch:normal;font-size:5.76705122px;line-height:125%;font-family:Arial;-inkscape-font-specification:'Arial Bold';text-align:center;letter-spacing:0px;word-spacing:0px;text-anchor:middle;fill:#ffffff;fill-opacity:1;stroke:none;stroke-width:1px;stroke-linecap:butt;stroke-linejoin:miter;stroke-opacity:1"
       id="path6764" /><path
       d="m 212.13234,252.21942 0,-8.25636 2.67514,0 q 1.52062,0 1.98244,0.124 0.7096,0.1858 1.18832,0.811 0.4787,0.6195 0.4787,1.60508 0,0.76032 -0.27596,1.27844 -0.27596,0.51814 -0.70398,0.81662 -0.4224,0.29286 -0.86168,0.38862 -0.59698,0.1182 -1.72898,0.1182 l -1.08696,0 0,3.11444 -1.66704,0 z m 1.66704,-6.85964 0,2.34286 0.91236,0 q 0.98558,0 1.31786,-0.1296 0.33228,-0.1296 0.51814,-0.40548 0.1914,-0.27598 0.1914,-0.64204 0,-0.45056 -0.2647,-0.74342 -0.2647,-0.29286 -0.67018,-0.36606 -0.2985,-0.0564 -1.1996,-0.0564 l -0.80536,0 z"
       style="font-style:normal;font-variant:normal;font-weight:bold;font-stretch:normal;font-size:5.76705122px;line-height:125%;font-family:Arial;-inkscape-font-specification:'Arial Bold';text-align:center;letter-spacing:0px;word-spacing:0px;text-anchor:middle;fill:#ffffff;fill-opacity:1;stroke:none;stroke-width:1px;stroke-linecap:butt;stroke-linejoin:miter;stroke-opacity:1"
       id="path6766" /><path
       d="m 219.78608,252.21942 0,-8.25636 1.66704,0 0,8.25636 -1.66704,0 z"
       style="font-style:normal;font-variant:normal;font-weight:bold;font-stretch:normal;font-size:5.76705122px;line-height:125%;font-family:Arial;-inkscape-font-specification:'Arial Bold';text-align:center;letter-spacing:0px;word-spacing:0px;text-anchor:middle;fill:#ffffff;fill-opacity:1;stroke:none;stroke-width:1px;stroke-linecap:butt;stroke-linejoin:miter;stroke-opacity:1"
       id="path6768" /><path
       d="m 224.8942,252.21942 0,-6.85964 -2.44988,0 0,-1.39672 6.56116,0 0,1.39672 -2.44424,0 0,6.85964 -1.66704,0 z"
       style="font-style:normal;font-variant:normal;font-weight:bold;font-stretch:normal;font-size:5.76705122px;line-height:125%;font-family:Arial;-inkscape-font-specification:'Arial Bold';text-align:center;letter-spacing:0px;word-spacing:0px;text-anchor:middle;fill:#ffffff;fill-opacity:1;stroke:none;stroke-width:1px;stroke-linecap:butt;stroke-linejoin:miter;stroke-opacity:1"
       id="path6770" /><path
       d="m 235.34698,249.18382 1.61634,0.5125 q -0.3717,1.35166 -1.23902,2.0106 -0.86166,0.65328 -2.1908,0.65328 -1.6445,0 -2.7033,-1.12074 -1.0588,-1.12638 -1.0588,-3.075 0,-2.06128 1.06444,-3.19892 1.06442,-1.14326 2.79904,-1.14326 1.51498,0 2.46114,0.89546 0.56318,0.5294 0.84478,1.5206 l -1.65014,0.39424 q -0.1464,-0.64204 -0.61388,-1.01374 -0.46182,-0.3717 -1.12638,-0.3717 -0.918,0 -1.49244,0.65892 -0.56882,0.65894 -0.56882,2.1345 0,1.56566 0.56318,2.23022 0.56318,0.66456 1.46428,0.66456 0.66458,0 1.14328,-0.42238 0.47872,-0.4224 0.6871,-1.32914 z"
       style="font-style:normal;font-variant:normal;font-weight:bold;font-stretch:normal;font-size:5.76705122px;line-height:125%;font-family:Arial;-inkscape-font-specification:'Arial Bold';text-align:center;letter-spacing:0px;word-spacing:0px;text-anchor:middle;fill:#ffffff;fill-opacity:1;stroke:none;stroke-width:1px;stroke-linecap:butt;stroke-linejoin:miter;stroke-opacity:1"
       id="path6772" /><path
       d="m 238.40508,252.21942 0,-8.25636 1.66704,0 0,3.2496 3.2665,0 0,-3.2496 1.66704,0 0,8.25636 -1.66704,0 0,-3.61004 -3.2665,0 0,3.61004 -1.66704,0 z"
       style="font-style:normal;font-variant:normal;font-weight:bold;font-stretch:normal;font-size:5.76705122px;line-height:125%;font-family:Arial;-inkscape-font-specification:'Arial Bold';text-align:center;letter-spacing:0px;word-spacing:0px;text-anchor:middle;fill:#ffffff;fill-opacity:1;stroke:none;stroke-width:1px;stroke-linecap:butt;stroke-linejoin:miter;stroke-opacity:1"
       id="path6774" /><path
       d="m 178.86481,264.81925 0,-8.25634 1.66702,0 0,8.25634 -1.66702,0 z"
       style="font-style:normal;font-variant:normal;font-weight:bold;font-stretch:normal;font-size:5.76705122px;line-height:125%;font-family:Arial;-inkscape-font-specification:'Arial Bold';text-align:center;letter-spacing:0px;word-spacing:0px;text-anchor:middle;fill:#ffffff;fill-opacity:1;stroke:none;stroke-width:1px;stroke-linecap:butt;stroke-linejoin:miter;stroke-opacity:1"
       id="path6777" /><path
       d="m 182.13129,264.81925 0,-8.25634 1.62198,0 3.37914,5.51362 0,-5.51362 1.54876,0 0,8.25634 -1.67266,0 -3.32844,-5.38408 0,5.38408 -1.54878,0 z"
       style="font-style:normal;font-variant:normal;font-weight:bold;font-stretch:normal;font-size:5.76705122px;line-height:125%;font-family:Arial;-inkscape-font-specification:'Arial Bold';text-align:center;letter-spacing:0px;word-spacing:0px;text-anchor:middle;fill:#ffffff;fill-opacity:1;stroke:none;stroke-width:1px;stroke-linecap:butt;stroke-linejoin:miter;stroke-opacity:1"
       id="path6779" /><path
       d="m 190.46085,264.81925 0,-8.25634 5.66004,0 0,1.3967 -3.993,0 0,1.95428 3.44672,0 0,1.3967 -3.44672,0 0,3.50866 -1.66704,0 z"
       style="font-style:normal;font-variant:normal;font-weight:bold;font-stretch:normal;font-size:5.76705122px;line-height:125%;font-family:Arial;-inkscape-font-specification:'Arial Bold';text-align:center;letter-spacing:0px;word-spacing:0px;text-anchor:middle;fill:#ffffff;fill-opacity:1;stroke:none;stroke-width:1px;stroke-linecap:butt;stroke-linejoin:miter;stroke-opacity:1"
       id="path6781" /><path
       d="m 197.16279,260.74177 q 0,-1.26154 0.37734,-2.11758 0.2816,-0.63078 0.76594,-1.13202 0.48998,-0.50124 1.07006,-0.7434 0.77155,-0.32666 1.77967,-0.32666 1.82472,0 2.91732,1.13202 1.0982,1.132 1.0982,3.14822 0,1.99932 -1.08694,3.13132 -1.08696,1.12638 -2.90606,1.12638 -1.84161,0 -2.92857,-1.12074 -1.08696,-1.12638 -1.08696,-3.09754 z m 1.71774,-0.0564 q 0,1.40234 0.64765,2.12886 0.64766,0.72088 1.64452,0.72088 0.99684,0 1.63324,-0.71526 0.64204,-0.72088 0.64204,-2.157 0,-1.41924 -0.62514,-2.1176 -0.61952,-0.69834 -1.65014,-0.69834 -1.03064,0 -1.66141,0.7096 -0.63076,0.704 -0.63076,2.12886 z"
       style="font-style:normal;font-variant:normal;font-weight:bold;font-stretch:normal;font-size:5.76705122px;line-height:125%;font-family:Arial;-inkscape-font-specification:'Arial Bold';text-align:center;letter-spacing:0px;word-spacing:0px;text-anchor:middle;fill:#ffffff;fill-opacity:1;stroke:none;stroke-width:1px;stroke-linecap:butt;stroke-linejoin:miter;stroke-opacity:1"
       id="path6783" /><path
       d="m 206.4723,264.81925 0,-8.25634 3.50866,0 q 1.3235,0 1.92048,0.22528 0.6026,0.21964 0.96304,0.78846 0.36044,0.56882 0.36044,1.30096 0,0.92926 -0.54628,1.53752 -0.5463,0.6026 -1.63326,0.7603 0.54066,0.31538 0.88984,0.69272 0.35482,0.37734 0.9518,1.34038 l 1.0081,1.61072 -1.99368,0 -1.20524,-1.79656 q -0.64202,-0.96306 -0.87856,-1.21086 -0.23654,-0.25344 -0.50124,-0.34354 -0.2647,-0.0958 -0.83916,-0.0958 l -0.3379,0 0,3.4467 -1.66704,0 z m 1.66704,-4.76456 1.23338,0 q 1.19958,0 1.49808,-0.1014 0.29848,-0.1014 0.46744,-0.34918 0.169,-0.2478 0.169,-0.6195 0,-0.41676 -0.22528,-0.6702 -0.21964,-0.25906 -0.62514,-0.32666 -0.20274,-0.0282 -1.21648,-0.0282 l -1.30096,0 0,2.09508 z"
       style="font-style:normal;font-variant:normal;font-weight:bold;font-stretch:normal;font-size:5.76705122px;line-height:125%;font-family:Arial;-inkscape-font-specification:'Arial Bold';text-align:center;letter-spacing:0px;word-spacing:0px;text-anchor:middle;fill:#ffffff;fill-opacity:1;stroke:none;stroke-width:1px;stroke-linecap:butt;stroke-linejoin:miter;stroke-opacity:1"
       id="path6785" /><path
       d="m 214.77932,264.81925 0,-8.25634 2.49494,0 1.49808,5.63188 1.48118,-5.63188 2.50056,0 0,8.25634 -1.54878,0 0,-6.4992 -1.63888,6.4992 -1.60508,0 -1.63324,-6.4992 0,6.4992 -1.54878,0 z"
       style="font-style:normal;font-variant:normal;font-weight:bold;font-stretch:normal;font-size:5.76705122px;line-height:125%;font-family:Arial;-inkscape-font-specification:'Arial Bold';text-align:center;letter-spacing:0px;word-spacing:0px;text-anchor:middle;fill:#ffffff;fill-opacity:1;stroke:none;stroke-width:1px;stroke-linecap:butt;stroke-linejoin:miter;stroke-opacity:1"
       id="path6787" /><path
       d="m 231.86646,264.81925 -1.81346,0 -0.72088,-1.87542 -3.30028,0 -0.68146,1.87542 -1.76842,0 3.21582,-8.25634 1.76278,0 3.3059,8.25634 z m -3.06936,-3.26648 -1.13766,-3.06376 -1.1151,3.06376 2.25276,0 z"
       style="font-style:normal;font-variant:normal;font-weight:bold;font-stretch:normal;font-size:5.76705122px;line-height:125%;font-family:Arial;-inkscape-font-specification:'Arial Bold';text-align:center;letter-spacing:0px;word-spacing:0px;text-anchor:middle;fill:#ffffff;fill-opacity:1;stroke:none;stroke-width:1px;stroke-linecap:butt;stroke-linejoin:miter;stroke-opacity:1"
       id="path6789" /><path
       d="m 233.7813,264.81925 0,-6.85964 -2.44986,0 0,-1.3967 6.56114,0 0,1.3967 -2.44424,0 0,6.85964 -1.66704,0 z"
       style="font-style:normal;font-variant:normal;font-weight:bold;font-stretch:normal;font-size:5.76705122px;line-height:125%;font-family:Arial;-inkscape-font-specification:'Arial Bold';text-align:center;letter-spacing:0px;word-spacing:0px;text-anchor:middle;fill:#ffffff;fill-opacity:1;stroke:none;stroke-width:1px;stroke-linecap:butt;stroke-linejoin:miter;stroke-opacity:1"
       id="path6791" /><path
       d="m 238.9007,264.81925 0,-8.25634 1.66704,0 0,8.25634 -1.66704,0 z"
       style="font-style:normal;font-variant:normal;font-weight:bold;font-stretch:normal;font-size:5.76705122px;line-height:125%;font-family:Arial;-inkscape-font-specification:'Arial Bold';text-align:center;letter-spacing:0px;word-spacing:0px;text-anchor:middle;fill:#ffffff;fill-opacity:1;stroke:none;stroke-width:1px;stroke-linecap:butt;stroke-linejoin:miter;stroke-opacity:1"
       id="path6793" /><path
       d="m 241.81238,260.74177 q 0,-1.26154 0.37734,-2.11758 0.28158,-0.63078 0.76594,-1.13202 0.48996,-0.50124 1.07004,-0.7434 0.77158,-0.32666 1.77968,-0.32666 1.82474,0 2.91732,1.13202 1.09821,1.132 1.09821,3.14822 0,1.99932 -1.08695,3.13132 -1.08694,1.12638 -2.90604,1.12638 -1.84164,0 -2.92858,-1.12074 -1.08696,-1.12638 -1.08696,-3.09754 z m 1.71772,-0.0564 q 0,1.40234 0.64766,2.12886 0.64768,0.72088 1.64452,0.72088 0.99684,0 1.63324,-0.71526 0.64204,-0.72088 0.64204,-2.157 0,-1.41924 -0.62514,-2.1176 -0.6195,-0.69834 -1.65014,-0.69834 -1.03064,0 -1.6614,0.7096 -0.63078,0.704 -0.63078,2.12886 z"
       style="font-style:normal;font-variant:normal;font-weight:bold;font-stretch:normal;font-size:5.76705122px;line-height:125%;font-family:Arial;-inkscape-font-specification:'Arial Bold';text-align:center;letter-spacing:0px;word-spacing:0px;text-anchor:middle;fill:#ffffff;fill-opacity:1;stroke:none;stroke-width:1px;stroke-linecap:butt;stroke-linejoin:miter;stroke-opacity:1"
       id="path6795" /><path
       d="m 251.13313,264.81925 0,-8.25634 1.622,0 3.37912,5.51362 0,-5.51362 1.54878,0 0,8.25634 -1.67268,0 -3.32844,-5.38408 0,5.38408 -1.54878,0 z"
       style="font-style:normal;font-variant:normal;font-weight:bold;font-stretch:normal;font-size:5.76705122px;line-height:125%;font-family:Arial;-inkscape-font-specification:'Arial Bold';text-align:center;letter-spacing:0px;word-spacing:0px;text-anchor:middle;fill:#ffffff;fill-opacity:1;stroke:none;stroke-width:1px;stroke-linecap:butt;stroke-linejoin:miter;stroke-opacity:1"
       id="path6797" /><path
       id="path6695"
       style="font-style:normal;font-variant:normal;font-weight:bold;font-stretch:normal;font-size:medium;line-height:125%;font-family:Arial;-inkscape-font-specification:'Arial Bold';text-align:center;letter-spacing:-0.76999998px;word-spacing:-1.50064945px;text-anchor:middle;fill:#ffffff;fill-opacity:1;stroke:none;stroke-width:1px;stroke-linecap:butt;stroke-linejoin:miter;stroke-opacity:1"
       d="m 177.99829,35.148459 4.95514,0 q 1.67614,0 2.55544,0.25646 1.18154,0.34804 2.02418,1.2365 0.84266,0.888439 1.2823,2.179899 0.43964,1.28228 0.43964,3.169079 0,1.65782 -0.41216,2.85768 -0.50376,1.46548 -1.438,2.372259 -0.70526,0.68694 -1.90512,1.07162 -0.89762,0.28394 -2.39972,0.28394 l -5.1017,0 0,-13.427437 z m 2.71114,2.271479 0,8.893619 2.02418,0 q 1.13574,0 1.6395,-0.1282 0.65948,-0.1648 1.08996,-0.55872 0.43964,-0.39384 0.71442,-1.29144 0.27478,-0.90678 0.27478,-2.46384 0,-1.557079 -0.27478,-2.390559 -0.27478,-0.8335 -0.76938,-1.30062 -0.4946,-0.46712 -1.25482,-0.63198 -0.56786,-0.1282 -2.2257,-0.1282 l -1.21816,0 z" /><path
       id="path6697"
       style="font-style:normal;font-variant:normal;font-weight:bold;font-stretch:normal;font-size:medium;line-height:125%;font-family:Arial;-inkscape-font-specification:'Arial Bold';text-align:center;letter-spacing:-0.76999998px;word-spacing:-1.50064945px;text-anchor:middle;fill:#ffffff;fill-opacity:1;stroke:none;stroke-width:1px;stroke-linecap:butt;stroke-linejoin:miter;stroke-opacity:1"
       d="m 190.00479,48.575896 0,-2.573739 2.57376,0 0,2.573739 -2.57376,0 z" /><path
       id="path6699"
       style="font-style:normal;font-variant:normal;font-weight:bold;font-stretch:normal;font-size:medium;line-height:125%;font-family:Arial;-inkscape-font-specification:'Arial Bold';text-align:center;letter-spacing:-0.76999998px;word-spacing:-1.50064945px;text-anchor:middle;fill:#ffffff;fill-opacity:1;stroke:none;stroke-width:1px;stroke-linecap:butt;stroke-linejoin:miter;stroke-opacity:1"
       d="m 202.27692,43.639057 2.6287,0.8335 q -0.6045,2.19822 -2.01504,3.269839 -1.40136,1.06248 -3.56293,1.06248 -2.6745,0 -4.39642,-1.82268 -1.72194,-1.831859 -1.72194,-5.000959 0,-3.352279 1.73108,-5.202438 1.7311,-1.85932 4.55216,-1.85932 2.46381,0 4.00257,1.45632 0.91592,0.860959 1.37388,2.472979 l -2.68366,0.64116 q -0.23814,-1.04416 -0.99836,-1.64866 -0.75104,-0.60452 -1.83183,-0.60452 -1.49296,0 -2.4272,1.07164 -0.92508,1.07162 -0.92508,3.47134 0,2.546279 0.91592,3.627059 0.91592,1.0808 2.3814,1.0808 1.08079,0 1.85933,-0.68696 0.77852,-0.68694 1.11742,-2.16158 z" /><path
       id="path6701"
       style="font-style:normal;font-variant:normal;font-weight:bold;font-stretch:normal;font-size:medium;line-height:125%;font-family:Arial;-inkscape-font-specification:'Arial Bold';text-align:center;letter-spacing:-0.76999998px;word-spacing:-1.50064945px;text-anchor:middle;fill:#ffffff;fill-opacity:1;stroke:none;stroke-width:1px;stroke-linecap:butt;stroke-linejoin:miter;stroke-opacity:1"
       d="m 205.6829,48.575896 0,-2.573739 2.57376,0 0,2.573739 -2.57376,0 z" /><path
       id="path6703"
       style="font-style:normal;font-variant:normal;font-weight:bold;font-stretch:normal;font-size:medium;line-height:125%;font-family:Arial;-inkscape-font-specification:'Arial Bold';text-align:center;letter-spacing:-0.76999998px;word-spacing:-1.50064945px;text-anchor:middle;fill:#ffffff;fill-opacity:1;stroke:none;stroke-width:1px;stroke-linecap:butt;stroke-linejoin:miter;stroke-opacity:1"
       d="m 212.3127,48.575896 0,-13.427437 9.9561,0 0,2.271479 -7.24496,0 0,2.97676 6.7412,0 0,2.262339 -6.7412,0 0,3.65452 7.50142,0 0,2.262339 -10.21256,0 z" /><path
       id="path6705"
       style="font-style:normal;font-variant:normal;font-weight:bold;font-stretch:normal;font-size:medium;line-height:125%;font-family:Arial;-inkscape-font-specification:'Arial Bold';text-align:center;letter-spacing:-0.76999998px;word-spacing:-1.50064945px;text-anchor:middle;fill:#ffffff;fill-opacity:1;stroke:none;stroke-width:1px;stroke-linecap:butt;stroke-linejoin:miter;stroke-opacity:1"
       d="m 223.37582,48.575896 0,-13.317537 2.71112,0 0,11.055198 6.7412,0 0,2.262339 -9.45232,0 z" /><path
       id="path6707"
       style="font-style:normal;font-variant:normal;font-weight:bold;font-stretch:normal;font-size:medium;line-height:125%;font-family:Arial;-inkscape-font-specification:'Arial Bold';text-align:center;letter-spacing:-0.76999998px;word-spacing:-1.50064945px;text-anchor:middle;fill:#ffffff;fill-opacity:1;stroke:none;stroke-width:1px;stroke-linecap:butt;stroke-linejoin:miter;stroke-opacity:1"
       d="m 233.2299,48.575896 0,-13.427437 9.9561,0 0,2.271479 -7.24496,0 0,2.97676 6.7412,0 0,2.262339 -6.7412,0 0,3.65452 7.50142,0 0,2.262339 -10.21256,0 z" /><path
       id="path6709"
       style="font-style:normal;font-variant:normal;font-weight:bold;font-stretch:normal;font-size:medium;line-height:125%;font-family:Arial;-inkscape-font-specification:'Arial Bold';text-align:center;letter-spacing:-0.76999998px;word-spacing:-1.50064945px;text-anchor:middle;fill:#ffffff;fill-opacity:1;stroke:none;stroke-width:1px;stroke-linecap:butt;stroke-linejoin:miter;stroke-opacity:1"
       d="m 252.81111,43.639057 2.6287,0.8335 q -0.60452,2.19822 -2.01504,3.269839 -1.40136,1.06248 -3.56294,1.06248 -2.67449,0 -4.39643,-1.82268 -1.72194,-1.831859 -1.72194,-5.000959 0,-3.352279 1.7311,-5.202438 1.7311,-1.85932 4.55213,-1.85932 2.46384,0 4.0026,1.45632 0.91592,0.860959 1.37388,2.472979 l -2.68366,0.64116 q -0.23814,-1.04416 -0.99836,-1.64866 -0.75106,-0.60452 -1.83184,-0.60452 -1.49295,0 -2.42719,1.07164 -0.92508,1.07162 -0.92508,3.47134 0,2.546279 0.91592,3.627059 0.91592,1.0808 2.38139,1.0808 1.08078,0 1.85932,-0.68696 0.77854,-0.68694 1.11744,-2.16158 z" /><path
       id="path6711"
       style="font-style:normal;font-variant:normal;font-weight:bold;font-stretch:normal;font-size:medium;line-height:125%;font-family:Arial;-inkscape-font-specification:'Arial Bold';text-align:center;letter-spacing:-0.76999998px;word-spacing:-1.50064945px;text-anchor:middle;fill:#ffffff;fill-opacity:1;stroke:none;stroke-width:1px;stroke-linecap:butt;stroke-linejoin:miter;stroke-opacity:1"
       d="m 256.21709,48.575896 0,-2.573739 2.57374,0 0,2.573739 -2.57374,0 z" /><path
       style="display:inline;opacity:1;fill:none;fill-rule:evenodd;stroke:#ffffff;stroke-width:1px;stroke-linecap:butt;stroke-linejoin:miter;stroke-opacity:1;filter:url(#filter7925)"
       d="m 150.98832,180.17527 c 44.14746,6.67821 88.8613,8.91984 135,0"
       id="path7835" /></g></svg>