<?xml version="1.0" encoding="UTF-8" standalone="no"?>
<svg
   xmlns:osb="http://www.openswatchbook.org/uri/2009/osb"
   xmlns:dc="http://purl.org/dc/elements/1.1/"
   xmlns:cc="http://creativecommons.org/ns#"
   xmlns:rdf="http://www.w3.org/1999/02/22-rdf-syntax-ns#"
   xmlns:svg="http://www.w3.org/2000/svg"
   xmlns="http://www.w3.org/2000/svg"
   xmlns:xlink="http://www.w3.org/1999/xlink"
   version="1.1"
   id="Layer_2"
   x="0px"
   y="0px"
   width="400.66699"
   height="400.66599"
   viewBox="0 0 400.667 400.666"
   enable-background="new 0 0 400.667 400.666"
   xml:space="preserve"><metadata
     id="metadata111"><rdf:RDF><cc:Work
         rdf:about=""><dc:format>image/svg+xml</dc:format><dc:type
           rdf:resource="http://purl.org/dc/dcmitype/StillImage" /><dc:title></dc:title></cc:Work></rdf:RDF></metadata><defs
     id="defs109"><linearGradient
       id="linearGradient5786"
       osb:paint="gradient"><stop
         style="stop-color:#363636;stop-opacity:1;"
         offset="0"
         id="stop5788" /><stop
         style="stop-color:#000000;stop-opacity:1;"
         offset="1"
         id="stop5790" /></linearGradient><linearGradient
       id="linearGradient8979"
       gradientUnits="userSpaceOnUse"
       x1="148.1084"
       y1="142.3994"
       x2="163.70171"
       y2="169.4077"><stop
         offset="0"
         style="stop-color:#2d2d2d;stop-opacity:1"
         id="stop8981" /><stop
         offset="1"
         style="stop-color:#000000"
         id="stop8983" /></linearGradient><radialGradient
       gradientTransform="matrix(1.9720263,0,0,1.9720263,-361.57268,26.138984)"
       gradientUnits="userSpaceOnUse"
       r="2.1655145"
       fy="124.89909"
       fx="276.83231"
       cy="124.89909"
       cx="276.83231"
       id="radialGradient14809"
       xlink:href="#linearGradient14803" /><linearGradient
       id="linearGradient14803"><stop
         id="stop14805"
         offset="0"
         style="stop-color:#7d7d7d;stop-opacity:1" /><stop
         id="stop14807"
         offset="1"
         style="stop-color:#000000;stop-opacity:0.98431373" /></linearGradient><radialGradient
       gradientTransform="matrix(1.9720263,0,0,1.9720263,-329.26268,26.139851)"
       gradientUnits="userSpaceOnUse"
       r="2.1655145"
       fy="124.89909"
       fx="276.83231"
       cy="124.89909"
       cx="276.83231"
       id="radialGradient14809-1"
       xlink:href="#linearGradient14803" /><radialGradient
       gradientTransform="matrix(1.9720263,0,0,1.9720263,-361.57316,26.139529)"
       gradientUnits="userSpaceOnUse"
       r="2.1655145"
       fy="124.89909"
       fx="276.83231"
       cy="124.89909"
       cx="276.83231"
       id="radialGradient14809-3"
       xlink:href="#linearGradient14803" /><radialGradient
       gradientTransform="matrix(1.9720263,0,0,1.9720263,-329.26317,26.140395)"
       gradientUnits="userSpaceOnUse"
       r="2.1655145"
       fy="124.89909"
       fx="276.83231"
       cy="124.89909"
       cx="276.83231"
       id="radialGradient14809-1-2"
       xlink:href="#linearGradient14803" /><radialGradient
       gradientTransform="matrix(0.31614314,1.9748549,-2.5907327,0.41473546,792.02403,-181.69773)"
       gradientUnits="userSpaceOnUse"
       r="48.17337"
       fy="250.33479"
       fx="99.44091"
       cy="250.33479"
       cx="99.44091"
       id="radialGradient14860"
       xlink:href="#linearGradient8979" /><linearGradient
       gradientTransform="matrix(1.9999996,0,0,1.9999996,-40.844005,-394.44988)"
       gradientUnits="userSpaceOnUse"
       y2="266.70554"
       x2="161.41055"
       y1="255.70554"
       x1="161.41055"
       id="linearGradient6140"
       xlink:href="#linearGradient4962" /><linearGradient
       id="linearGradient4962"><stop
         id="stop4964"
         offset="0"
         style="stop-color:#2c2727;stop-opacity:1" /><stop
         style="stop-color:#4b423f;stop-opacity:1"
         offset="0.51540768"
         id="stop6142" /><stop
         id="stop4966"
         offset="1"
         style="stop-color:#342e2d;stop-opacity:1" /></linearGradient><linearGradient
       gradientTransform="matrix(1.9999996,0,0,1.9999996,-40.844005,-394.44988)"
       gradientUnits="userSpaceOnUse"
       y2="267.24658"
       x2="171.95424"
       y1="255.51804"
       x1="153.19804"
       id="linearGradient6150"
       xlink:href="#linearGradient6144" /><linearGradient
       id="linearGradient6144"><stop
         id="stop6146"
         offset="0"
         style="stop-color:#282828;stop-opacity:1" /><stop
         id="stop6148"
         offset="1"
         style="stop-color:#5b5a58;stop-opacity:1" /></linearGradient><linearGradient
       gradientTransform="matrix(1.9999996,0,0,1.9999996,-40.219005,-370.69988)"
       gradientUnits="userSpaceOnUse"
       y2="295.48901"
       x2="129.28619"
       y1="273.84503"
       x1="129.28619"
       id="linearGradient17130"
       xlink:href="#linearGradient17104" /><linearGradient
       id="linearGradient17104"><stop
         id="stop17106"
         offset="0"
         style="stop-color:#0f0f0f;stop-opacity:1" /><stop
         style="stop-color:#646464;stop-opacity:1"
         offset="0.54506236"
         id="stop17112" /><stop
         id="stop17108"
         offset="1"
         style="stop-color:#0f0f0f;stop-opacity:1" /></linearGradient><radialGradient
       gradientUnits="userSpaceOnUse"
       gradientTransform="matrix(1.9999996,0,0,1.2585375,-40.219005,-159.58144)"
       r="39.875473"
       fy="284.7334"
       fx="129.18848"
       cy="284.7334"
       cx="129.18848"
       id="radialGradient5130"
       xlink:href="#linearGradient5124" /><linearGradient
       id="linearGradient5124"><stop
         id="stop5126"
         offset="0"
         style="stop-color:#7f818c;stop-opacity:1" /><stop
         id="stop5128"
         offset="1"
         style="stop-color:#d4d4d5;stop-opacity:1" /></linearGradient></defs><circle
     style="display:inline;opacity:1;fill:url(#radialGradient14809);fill-opacity:1;stroke:none;stroke-width:0.5;stroke-miterlimit:4;stroke-dasharray:none;stroke-dashoffset:0;stroke-opacity:1"
     id="path14799"
     cx="184.34793"
     cy="272.4433"
     r="0" /><circle
     style="display:inline;opacity:1;fill:url(#radialGradient14809-1);fill-opacity:1;stroke:none;stroke-width:0.5;stroke-miterlimit:4;stroke-dasharray:none;stroke-dashoffset:0;stroke-opacity:1"
     id="path14799-8"
     cx="216.65788"
     cy="272.44415"
     r="0" /><circle
     style="display:inline;opacity:1;fill:url(#radialGradient14809-3);fill-opacity:1;stroke:none;stroke-width:0.5;stroke-miterlimit:4;stroke-dasharray:none;stroke-dashoffset:0;stroke-opacity:1"
     id="path14799-9"
     cx="184.34746"
     cy="272.44385"
     r="0" /><circle
     style="display:inline;opacity:1;fill:url(#radialGradient14809-1-2);fill-opacity:1;stroke:none;stroke-width:0.5;stroke-miterlimit:4;stroke-dasharray:none;stroke-dashoffset:0;stroke-opacity:1"
     id="path14799-8-7"
     cx="216.65741"
     cy="272.4447"
     r="0" /><g
     transform="matrix(1.1106743,0,0,1.1106743,-42.015864,34.945301)"
     style="display:inline;opacity:1"
     id="g8077"><circle
       r="96.346718"
       cy="148.55838"
       cx="218.39807"
       id="path4815-3"
       style="display:inline;opacity:1;fill:url(#radialGradient14860);fill-opacity:1;fill-rule:evenodd;stroke:none;stroke-width:0.96476698;stroke-linecap:butt;stroke-linejoin:miter;stroke-miterlimit:4;stroke-dasharray:none;stroke-dashoffset:0;stroke-opacity:1" /><rect
       y="118.96817"
       x="264.7485"
       height="18.266203"
       width="32.837612"
       id="rect4935"
       style="fill:url(#linearGradient6140);fill-opacity:1;stroke:url(#linearGradient6150);stroke-width:1.59999967;stroke-miterlimit:4;stroke-dasharray:none;stroke-dashoffset:0;stroke-opacity:1" /><path
       id="path6714"
       style="font-style:normal;font-variant:normal;font-weight:bold;font-stretch:normal;font-size:7.13643169px;line-height:125%;font-family:Arial;-inkscape-font-specification:'Arial Bold';text-align:center;letter-spacing:-0.12px;word-spacing:0px;text-anchor:middle;fill:#ffffff;fill-opacity:1;stroke:none;stroke-width:1px;stroke-linecap:butt;stroke-linejoin:miter;stroke-opacity:1"
       d="m 153.62796,107.97957 0,-9.155893 -2.8106,0 0,-1.864237 7.52722,0 0,1.864237 -2.80414,0 0,9.155893 -1.91248,0 z" /><path
       id="path6716"
       style="font-style:normal;font-variant:normal;font-weight:bold;font-stretch:normal;font-size:7.13643169px;line-height:125%;font-family:Arial;-inkscape-font-specification:'Arial Bold';text-align:center;letter-spacing:-0.12px;word-spacing:0px;text-anchor:middle;fill:#ffffff;fill-opacity:1;stroke:none;stroke-width:1px;stroke-linecap:butt;stroke-linejoin:miter;stroke-opacity:1"
       d="m 159.32386,96.95944 1.91248,0 0,5.96861 q 0,1.42073 0.071,1.8417 0.12274,0.67654 0.58151,1.08997 0.4652,0.40593 1.26639,0.40593 0.81409,0 1.22761,-0.38336 0.41351,-0.3909 0.4975,-0.95467 0.084,-0.5638 0.084,-1.87179 l 0,-6.09639 1.9125,0 0,5.7882 q 0,1.98453 -0.15501,2.8039 -0.15501,0.81937 -0.57505,1.38315 -0.4135,0.56377 -1.11131,0.90205 -0.69782,0.33075 -1.82204,0.33075 -1.35685,0 -2.06112,-0.36082 -0.69779,-0.36833 -1.10484,-0.94717 -0.40706,-0.58632 -0.53628,-1.22527 -0.18736,-0.94717 -0.18736,-2.79639 l 0,-5.8784 z" /><path
       id="path6718"
       style="font-style:normal;font-variant:normal;font-weight:bold;font-stretch:normal;font-size:7.13643169px;line-height:125%;font-family:Arial;-inkscape-font-specification:'Arial Bold';text-align:center;letter-spacing:-0.12px;word-spacing:0px;text-anchor:middle;fill:#ffffff;fill-opacity:1;stroke:none;stroke-width:1px;stroke-linecap:butt;stroke-linejoin:miter;stroke-opacity:1"
       d="m 168.68322,107.97957 0,-11.02013 4.02527,0 q 1.51838,0 2.20326,0.300678 0.69134,0.293172 1.10485,1.052397 0.41352,0.759225 0.41352,1.736465 0,1.24033 -0.62674,2.05218 -0.62672,0.80433 -1.87373,1.01481 0.62027,0.42097 1.02087,0.92462 0.40704,0.50364 1.09193,1.78908 l 1.15654,2.1499 -2.28724,0 -1.38268,-2.39796 q -0.73658,-1.28544 -1.00794,-1.6162 -0.27137,-0.33828 -0.57505,-0.45854 -0.30366,-0.12771 -0.9627,-0.12771 l -0.38768,0 0,4.6005 -1.91248,0 z m 1.91248,-6.3595 1.415,0 q 1.37623,0 1.71866,-0.13526 0.34244,-0.13526 0.53628,-0.46608 0.19384,-0.33075 0.19384,-0.82688 0,-0.556267 -0.25846,-0.894547 -0.25199,-0.345787 -0.71719,-0.435982 -0.23259,-0.03754 -1.39561,-0.03754 l -1.49252,0 0,2.796389 z" /><path
       id="path6720"
       style="font-style:normal;font-variant:normal;font-weight:bold;font-stretch:normal;font-size:7.13643169px;line-height:125%;font-family:Arial;-inkscape-font-specification:'Arial Bold';text-align:center;letter-spacing:-0.12px;word-spacing:0px;text-anchor:middle;fill:#ffffff;fill-opacity:1;stroke:none;stroke-width:1px;stroke-linecap:butt;stroke-linejoin:miter;stroke-opacity:1"
       d="m 178.03611,107.97957 0,-11.02013 1.8608,0 3.8767,7.35927 0,-7.35927 1.77681,0 0,11.02013 -1.91897,0 -3.81853,-7.1864 0,7.1864 -1.77681,0 z" /><path
       id="path6722"
       style="font-style:normal;font-variant:normal;font-weight:bold;font-stretch:normal;font-size:7.13643169px;line-height:125%;font-family:Arial;-inkscape-font-specification:'Arial Bold';text-align:center;letter-spacing:-0.12px;word-spacing:0px;text-anchor:middle;fill:#ffffff;fill-opacity:1;stroke:none;stroke-width:1px;stroke-linecap:butt;stroke-linejoin:miter;stroke-opacity:1"
       d="m 196.86467,103.92783 1.85436,0.68405 q -0.42643,1.80411 -1.42146,2.68363 -0.98855,0.87198 -2.51337,0.87198 -1.88666,0 -3.10136,-1.4959 -1.21469,-1.50344 -1.21469,-4.10436 0,-2.751279 1.22116,-4.269751 1.22116,-1.525979 3.21118,-1.525979 1.73804,0 2.82351,1.195228 0.64612,0.70661 0.96918,2.029634 l -1.89311,0.526198 q -0.16799,-0.856948 -0.70426,-1.353096 -0.52982,-0.496126 -1.29224,-0.496126 -1.05317,0 -1.71221,0.879514 -0.65256,0.879488 -0.65256,2.849008 0,2.08975 0.64611,2.97677 0.64612,0.88702 1.67989,0.88702 0.76242,0 1.31161,-0.56377 0.5492,-0.5638 0.78826,-1.77405 z" /><path
       id="path6724"
       style="font-style:normal;font-variant:normal;font-weight:bold;font-stretch:normal;font-size:7.13643169px;line-height:125%;font-family:Arial;-inkscape-font-specification:'Arial Bold';text-align:center;letter-spacing:-0.12px;word-spacing:0px;text-anchor:middle;fill:#ffffff;fill-opacity:1;stroke:none;stroke-width:1px;stroke-linecap:butt;stroke-linejoin:miter;stroke-opacity:1"
       d="m 199.75644,102.53716 q 0,-1.68385 0.4329,-2.826462 0.32305,-0.841913 0.8787,-1.510943 0.56213,-0.66903 1.22762,-0.992252 0.88518,-0.436003 2.04172,-0.436003 2.09342,0 3.34688,1.510943 1.25991,1.510943 1.25991,4.202097 0,2.66857 -1.24699,4.17954 -1.24701,1.50341 -3.33395,1.50341 -2.1128,0 -3.35979,-1.4959 -1.247,-1.50344 -1.247,-4.13443 z m 1.97064,-0.0753 q 0,1.87177 0.74304,2.8415 0.74304,0.96218 1.88665,0.96218 1.14362,0 1.87373,-0.95468 0.73657,-0.9622 0.73657,-2.87907 0,-1.89431 -0.71719,-2.826441 -0.71072,-0.932129 -1.89311,-0.932129 -1.18239,0 -1.90604,0.947166 -0.72365,0.939634 -0.72365,2.841474 z" /><path
       id="path6726"
       style="font-style:normal;font-variant:normal;font-weight:bold;font-stretch:normal;font-size:7.13643169px;line-height:125%;font-family:Arial;-inkscape-font-specification:'Arial Bold';text-align:center;letter-spacing:-0.12px;word-spacing:0px;text-anchor:middle;fill:#ffffff;fill-opacity:1;stroke:none;stroke-width:1px;stroke-linecap:butt;stroke-linejoin:miter;stroke-opacity:1"
       d="m 209.82006,102.53716 q 0,-1.68385 0.4329,-2.826462 0.32306,-0.841913 0.87873,-1.510943 0.5621,-0.66903 1.22761,-0.992252 0.88516,-0.436003 2.04172,-0.436003 2.0934,0 3.34686,1.510943 1.25993,1.510943 1.25993,4.202097 0,2.66857 -1.247,4.17954 -1.24699,1.50341 -3.33396,1.50341 -2.11279,0 -3.35978,-1.4959 -1.24701,-1.50344 -1.24701,-4.13443 z m 1.97065,-0.0753 q 0,1.87177 0.74304,2.8415 0.74303,0.96218 1.88665,0.96218 1.14362,0 1.87373,-0.95468 0.73656,-0.9622 0.73656,-2.87907 0,-1.89431 -0.71718,-2.826441 -0.71072,-0.932129 -1.89311,-0.932129 -1.18239,0 -1.90603,0.947166 -0.72366,0.939634 -0.72366,2.841474 z" /><path
       id="path6728"
       style="font-style:normal;font-variant:normal;font-weight:bold;font-stretch:normal;font-size:7.13643169px;line-height:125%;font-family:Arial;-inkscape-font-specification:'Arial Bold';text-align:center;letter-spacing:-0.12px;word-spacing:0px;text-anchor:middle;fill:#ffffff;fill-opacity:1;stroke:none;stroke-width:1px;stroke-linecap:butt;stroke-linejoin:miter;stroke-opacity:1"
       d="m 220.27783,107.97957 0,-11.02013 4.02528,0 q 1.51837,0 2.20326,0.300678 0.69134,0.293172 1.10485,1.052397 0.4135,0.759225 0.4135,1.736465 0,1.24033 -0.62672,2.05218 -0.62674,0.80433 -1.87373,1.01481 0.62027,0.42097 1.02085,0.92462 0.40706,0.50364 1.09194,1.78908 l 1.15655,2.1499 -2.28724,0 -1.3827,-2.39796 q -0.73656,-1.28544 -1.00793,-1.6162 -0.27136,-0.33828 -0.57504,-0.45854 -0.30367,-0.12771 -0.96271,-0.12771 l -0.38767,0 0,4.6005 -1.91249,0 z m 1.91249,-6.3595 1.415,0 q 1.37621,0 1.71866,-0.13526 0.34243,-0.13526 0.53627,-0.46608 0.19384,-0.33075 0.19384,-0.82688 0,-0.556267 -0.25846,-0.894547 -0.25198,-0.345787 -0.71718,-0.435982 -0.2326,-0.03754 -1.39561,-0.03754 l -1.49252,0 0,2.796389 z" /><path
       id="path6730"
       style="font-style:normal;font-variant:normal;font-weight:bold;font-stretch:normal;font-size:7.13643169px;line-height:125%;font-family:Arial;-inkscape-font-specification:'Arial Bold';text-align:center;letter-spacing:-0.12px;word-spacing:0px;text-anchor:middle;fill:#ffffff;fill-opacity:1;stroke:none;stroke-width:1px;stroke-linecap:butt;stroke-linejoin:miter;stroke-opacity:1"
       d="m 229.60488,96.95944 3.49547,0 q 1.18239,0 1.80266,0.210548 0.83348,0.285664 1.42792,1.014817 0.59442,0.729175 0.90456,1.789079 0.31013,1.052416 0.31013,2.600936 0,1.36061 -0.29076,2.34535 -0.35535,1.20276 -1.0144,1.94695 -0.4975,0.56378 -1.3439,0.87951 -0.6332,0.23303 -1.69282,0.23303 l -3.59886,0 0,-11.020134 z m 1.9125,1.864237 0,7.299163 1.4279,0 q 0.80119,0 1.15654,-0.10527 0.46521,-0.13526 0.76889,-0.45855 0.31013,-0.32324 0.50397,-1.05992 0.19382,-0.74419 0.19382,-2.02211 0,-1.27791 -0.19382,-1.96198 -0.19384,-0.684045 -0.54274,-1.067432 -0.34891,-0.383367 -0.88518,-0.51867 -0.40059,-0.105274 -1.57005,-0.105274 l -0.85933,0 z" /><path
       id="path6732"
       style="font-style:normal;font-variant:normal;font-weight:bold;font-stretch:normal;font-size:7.13643169px;line-height:125%;font-family:Arial;-inkscape-font-specification:'Arial Bold';text-align:center;letter-spacing:-0.12px;word-spacing:0px;text-anchor:middle;fill:#ffffff;fill-opacity:1;stroke:none;stroke-width:1px;stroke-linecap:butt;stroke-linejoin:miter;stroke-opacity:1"
       d="m 238.89317,107.97957 0,-11.02013 1.9125,0 0,11.02013 -1.9125,0 z" /><path
       id="path6734"
       style="font-style:normal;font-variant:normal;font-weight:bold;font-stretch:normal;font-size:7.13643169px;line-height:125%;font-family:Arial;-inkscape-font-specification:'Arial Bold';text-align:center;letter-spacing:-0.12px;word-spacing:0px;text-anchor:middle;fill:#ffffff;fill-opacity:1;stroke:none;stroke-width:1px;stroke-linecap:butt;stroke-linejoin:miter;stroke-opacity:1"
       d="m 242.41812,107.97957 0,-11.02013 1.86081,0 3.87668,7.35927 0,-7.35927 1.77681,0 0,11.02013 -1.91896,0 -3.81853,-7.1864 0,7.1864 -1.77681,0 z" /><path
       id="path6736"
       style="font-style:normal;font-variant:normal;font-weight:bold;font-stretch:normal;font-size:7.13643169px;line-height:125%;font-family:Arial;-inkscape-font-specification:'Arial Bold';text-align:center;letter-spacing:-0.12px;word-spacing:0px;text-anchor:middle;fill:#ffffff;fill-opacity:1;stroke:none;stroke-width:1px;stroke-linecap:butt;stroke-linejoin:miter;stroke-opacity:1"
       d="m 260.28035,107.97957 -2.08049,0 -0.82704,-2.50321 -3.78623,0 -0.78179,2.50321 -2.02879,0 3.68931,-11.02013 2.02233,0 3.7927,11.02013 z m -3.52132,-4.35994 -1.30516,-4.089343 -1.27931,4.089343 2.58447,0 z" /><path
       id="path6738"
       style="font-style:normal;font-variant:normal;font-weight:bold;font-stretch:normal;font-size:7.13643169px;line-height:125%;font-family:Arial;-inkscape-font-specification:'Arial Bold';text-align:center;letter-spacing:-0.12px;word-spacing:0px;text-anchor:middle;fill:#ffffff;fill-opacity:1;stroke:none;stroke-width:1px;stroke-linecap:butt;stroke-linejoin:miter;stroke-opacity:1"
       d="m 262.25463,107.97957 0,-9.155893 -2.8106,0 0,-1.864237 7.52722,0 0,1.864237 -2.80414,0 0,9.155893 -1.91248,0 z" /><path
       id="path6740"
       style="font-style:normal;font-variant:normal;font-weight:bold;font-stretch:normal;font-size:7.13643169px;line-height:125%;font-family:Arial;-inkscape-font-specification:'Arial Bold';text-align:center;letter-spacing:-0.12px;word-spacing:0px;text-anchor:middle;fill:#ffffff;fill-opacity:1;stroke:none;stroke-width:1px;stroke-linecap:butt;stroke-linejoin:miter;stroke-opacity:1"
       d="m 267.34316,102.53716 q 0,-1.68385 0.43291,-2.826462 0.32305,-0.841913 0.87872,-1.510943 0.5621,-0.66903 1.22762,-0.992252 0.88517,-0.436003 2.04172,-0.436003 2.09339,0 3.34686,1.510943 1.25993,1.510943 1.25993,4.202097 0,2.66857 -1.24701,4.17954 -1.24699,1.50341 -3.33395,1.50341 -2.1128,0 -3.35979,-1.4959 -1.24701,-1.50344 -1.24701,-4.13443 z m 1.97065,-0.0753 q 0,1.87177 0.74304,2.8415 0.74304,0.96218 1.88665,0.96218 1.14362,0 1.87373,-0.95468 0.73657,-0.9622 0.73657,-2.87907 0,-1.89431 -0.71719,-2.826441 -0.71072,-0.932129 -1.89311,-0.932129 -1.18239,0 -1.90603,0.947166 -0.72366,0.939634 -0.72366,2.841474 z" /><path
       id="path6742"
       style="font-style:normal;font-variant:normal;font-weight:bold;font-stretch:normal;font-size:7.13643169px;line-height:125%;font-family:Arial;-inkscape-font-specification:'Arial Bold';text-align:center;letter-spacing:-0.12px;word-spacing:0px;text-anchor:middle;fill:#ffffff;fill-opacity:1;stroke:none;stroke-width:1px;stroke-linecap:butt;stroke-linejoin:miter;stroke-opacity:1"
       d="m 277.80094,107.97957 0,-11.02013 4.02527,0 q 1.51838,0 2.20326,0.300678 0.69134,0.293172 1.10485,1.052397 0.41352,0.759225 0.41352,1.736465 0,1.24033 -0.62674,2.05218 -0.62672,0.80433 -1.87373,1.01481 0.62027,0.42097 1.02087,0.92462 0.40704,0.50364 1.09193,1.78908 l 1.15654,2.1499 -2.28724,0 -1.38268,-2.39796 q -0.73658,-1.28544 -1.00794,-1.6162 -0.27137,-0.33828 -0.57505,-0.45854 -0.30366,-0.12771 -0.9627,-0.12771 l -0.38766,0 0,4.6005 -1.9125,0 z m 1.9125,-6.3595 1.41498,0 q 1.37623,0 1.71866,-0.13526 0.34244,-0.13526 0.53628,-0.46608 0.19384,-0.33075 0.19384,-0.82688 0,-0.556267 -0.25846,-0.894547 -0.25197,-0.345787 -0.71717,-0.435982 -0.23261,-0.03754 -1.39563,-0.03754 l -1.4925,0 0,2.796389 z" /><path
       id="path6745"
       style="font-style:normal;font-variant:normal;font-weight:bold;font-stretch:normal;font-size:medium;line-height:125%;font-family:Arial;-inkscape-font-specification:'Arial Bold';letter-spacing:0.25px;word-spacing:0px;fill:#ffffff;fill-opacity:1;stroke:none;stroke-width:1px;stroke-linecap:butt;stroke-linejoin:miter;stroke-opacity:1"
       d="m 205.82645,232.83318 0,1.94704 -7.34806,0 q 0.1194,-1.10406 0.71616,-2.08878 0.5968,-0.99218 2.35734,-2.6259 1.4174,-1.32042 1.73818,-1.7904 0.43268,-0.64902 0.43268,-1.28312 0,-0.70122 -0.38046,-1.07422 -0.373,-0.38046 -1.03694,-0.38046 -0.65648,0 -1.0444,0.39538 -0.3879,0.39538 -0.44758,1.31294 l -2.0888,-0.20888 q 0.1864,-1.7307 1.17122,-2.48416 0.98472,-0.75346 2.46178,-0.75346 1.61882,0 2.54384,0.87282 0.92504,0.87282 0.92504,2.17084 0,0.73854 -0.26856,1.40994 -0.2611,0.66394 -0.8355,1.39502 -0.38046,0.48488 -1.37264,1.395 -0.99218,0.91012 -1.26074,1.20852 -0.2611,0.2984 -0.42522,0.58188 l 4.16266,0 z" /><path
       id="path6747"
       style="font-style:normal;font-variant:normal;font-weight:bold;font-stretch:normal;font-size:medium;line-height:125%;font-family:Arial;-inkscape-font-specification:'Arial Bold';letter-spacing:0.25px;word-spacing:0px;fill:#ffffff;fill-opacity:1;stroke:none;stroke-width:1px;stroke-linecap:butt;stroke-linejoin:miter;stroke-opacity:1"
       d="m 212.92124,234.78022 0,-10.9363 3.30476,0 1.98434,7.45996 1.96198,-7.45996 3.31222,0 0,10.9363 -2.0515,0 0,-8.60878 -2.17084,8.60878 -2.1261,0 -2.16338,-8.60878 0,8.60878 -2.05148,0 z" /><path
       id="path6749"
       style="font-style:normal;font-variant:normal;font-weight:bold;font-stretch:normal;font-size:medium;line-height:125%;font-family:Arial;-inkscape-font-specification:'Arial Bold';letter-spacing:0.25px;word-spacing:0px;fill:#ffffff;fill-opacity:1;stroke:none;stroke-width:1px;stroke-linecap:butt;stroke-linejoin:miter;stroke-opacity:1"
       d="m 226.12554,234.78022 0,-10.9363 2.20814,0 0,10.9363 -2.20814,0 z" /><path
       id="path6751"
       style="font-style:normal;font-variant:normal;font-weight:bold;font-stretch:normal;font-size:medium;line-height:125%;font-family:Arial;-inkscape-font-specification:'Arial Bold';letter-spacing:0.25px;word-spacing:0px;fill:#ffffff;fill-opacity:1;stroke:none;stroke-width:1px;stroke-linecap:butt;stroke-linejoin:miter;stroke-opacity:1"
       d="m 230.95232,234.78022 0,-10.9363 2.14846,0 4.47598,7.3033 0,-7.3033 2.0515,0 0,10.9363 -2.21562,0 -4.40884,-7.13172 0,7.13172 -2.05148,0 z" /><path
       id="path6753"
       style="font-style:normal;font-variant:normal;font-weight:normal;font-stretch:normal;font-size:medium;line-height:125%;font-family:Arial;-inkscape-font-specification:Arial;letter-spacing:-0.89000005px;word-spacing:0px;fill:#ffffff;fill-opacity:1;stroke:none;stroke-width:1px;stroke-linecap:butt;stroke-linejoin:miter;stroke-opacity:1"
       d="m 242.7467,234.78022 0,-1.52928 1.5293,0 0,1.52928 -1.5293,0 z" /><rect
       style="opacity:1;fill:url(#linearGradient17130);fill-opacity:1;stroke:#a5a5a5;stroke-width:0.5;stroke-miterlimit:4;stroke-dasharray:none;stroke-opacity:1"
       id="rect17122"
       width="160.67996"
       height="43.287991"
       x="137.71135"
       y="176.99007"
       ry="3.7499993" /><path
       id="path4663-8"
       d="m 290.25355,211.77988 c 4.2144,-2.41708 11.11176,-29.56745 5.61718,-33.02341 -1.03022,-0.648 -2.67952,-0.91392 -5,-0.91408 -10.05538,-6.4e-4 -32.73755,4.94142 -72.51279,4.94142 -39.77525,0 -62.85754,-4.94206 -72.91292,-4.94142 -2.32047,1.6e-4 -3.96977,0.26608 -5,0.91408 -5.49458,3.45596 1.40279,30.60633 5.61719,33.02341 32.54232,6.1287 50.31058,7.91216 72.29573,7.91016 21.98516,0.002 39.35328,-1.78146 71.89561,-7.91016 z"
       style="display:inline;opacity:1;fill:url(#radialGradient5130);fill-opacity:1;fill-rule:evenodd;stroke:none;stroke-width:0.40000001;stroke-linecap:butt;stroke-linejoin:miter;stroke-miterlimit:4;stroke-dasharray:none;stroke-opacity:1" /></g></svg>