<?xml version="1.0" encoding="UTF-8" standalone="no"?>
<svg
   xmlns:dc="http://purl.org/dc/elements/1.1/"
   xmlns:cc="http://creativecommons.org/ns#"
   xmlns:rdf="http://www.w3.org/1999/02/22-rdf-syntax-ns#"
   xmlns:svg="http://www.w3.org/2000/svg"
   xmlns="http://www.w3.org/2000/svg"
   xmlns:xlink="http://www.w3.org/1999/xlink"
   version="1.1"
   id="Layer_2"
   x="0px"
   y="0px"
   width="400.667px"
   height="400.666px"
   viewBox="0 0 400.667 400.666"
   enable-background="new 0 0 400.667 400.666"
   xml:space="preserve"><metadata
     id="metadata24"><rdf:RDF><cc:Work
         rdf:about=""><dc:format>image/svg+xml</dc:format><dc:type
           rdf:resource="http://purl.org/dc/dcmitype/StillImage" /><dc:title></dc:title></cc:Work></rdf:RDF></metadata><defs
     id="defs22"><linearGradient
       id="linearGradient9400-8"><stop
         style="stop-color:#191919;stop-opacity:1"
         offset="0"
         id="stop9402-5" /><stop
         style="stop-color:#232323;stop-opacity:1"
         offset="1"
         id="stop9404-3" /></linearGradient><filter
       style="color-interpolation-filters:sRGB"
       id="filter9390"
       x="-0.34513414"
       width="1.6902683"
       y="-0.032855928"
       height="1.0657119"><feGaussianBlur
         stdDeviation="2.166919"
         id="feGaussianBlur9392" /></filter><linearGradient
       xlink:href="#linearGradient9400-8"
       id="linearGradient9359"
       x1="830.47046"
       y1="-186.15297"
       x2="881.38947"
       y2="-189.51173"
       gradientUnits="userSpaceOnUse" /><linearGradient
       xlink:href="#linearGradient9400-8"
       id="linearGradient9357"
       x1="830.76367"
       y1="-137.18887"
       x2="840.94727"
       y2="-134.12637"
       gradientUnits="userSpaceOnUse" /><linearGradient
       xlink:href="#linearGradient9400-8"
       id="linearGradient4216"
       gradientUnits="userSpaceOnUse"
       gradientTransform="matrix(1.281625,0,0,0.9993349,-174.29702,-461.83577)"
       x1="789.32684"
       y1="290.61633"
       x2="789.32703"
       y2="326.74023" /></defs><filter
     filterUnits="objectBoundingBox"
     id="AI_Shadow_1"><feGaussianBlur
       stdDeviation="5"
       result="blur"
       in="SourceAlpha"
       id="feGaussianBlur4" /><feOffset
       dy="0"
       dx="0"
       result="offsetBlurredAlpha"
       in="blur"
       id="feOffset6" /><feMerge
       id="feMerge8"><feMergeNode
         in="offsetBlurredAlpha"
         id="feMergeNode10" /><feMergeNode
         in="SourceGraphic"
         id="feMergeNode12" /></feMerge></filter><g
     style="display:inline"
     id="g9382"
     transform="matrix(0,-2.2213169,2.2213169,0,-376.24499,1174.6511)"><path
       id="path9363"
       transform="matrix(0.5000001,0,0,0.5000001,44.108109,-45.650059)"
       d="m 789.32617,507.41992 -4.59961,12.17383 0,78.95703 -0.002,0 0,7.58399 c -1.11306,1.15186 -1.80078,2.71888 -1.80078,4.44726 0,1.72839 0.68772,3.29321 1.80078,4.44531 l 0,37.18555 a 7.5337066,7.5337066 0 0 0 -2.93164,5.95703 7.5337066,7.5337066 0 0 0 7.53515,7.53516 7.5337066,7.5337066 0 0 0 7.53321,-7.53516 7.5337066,7.5337066 0 0 0 -2.93164,-5.95117 l 0,-37.19141 c 1.11306,-1.15198 1.80078,-2.71692 1.80078,-4.44531 0,-1.72829 -0.68783,-3.29334 -1.80078,-4.44531 l 0,-6.60156 0,-0.98438 0,-78.95508 -4.60352,-12.17578 z"
       style="opacity:1;fill:#000000;fill-opacity:1;stroke:none;stroke-width:0.75;stroke-linecap:butt;stroke-linejoin:round;stroke-miterlimit:4;stroke-dasharray:none;stroke-opacity:1;filter:url(#filter9390)" /><g
       transform="matrix(0.5000001,0,0,0.5000001,20.109611,352.71734)"
       id="g8141"><path
         style="opacity:1;fill:#ffffff;fill-opacity:1;stroke:#2d2d2d;stroke-width:0.75;stroke-linecap:butt;stroke-linejoin:round;stroke-miterlimit:4;stroke-dasharray:none;stroke-opacity:1"
         d="m 837.32389,-289.31509 -4.59951,12.17445 0,79.94029 9.20174,0 0,-79.93832 z"
         id="path8143" /><path
         style="opacity:1;fill:url(#linearGradient4216);fill-opacity:1;stroke:#232323;stroke-width:0.75;stroke-linecap:butt;stroke-linejoin:round;stroke-miterlimit:4;stroke-dasharray:none;stroke-opacity:1"
         d="m 832.72227,-198.18312 0,57.28609 4.60082,0 4.60334,0 0,-57.28609 -9.20416,0 z"
         id="path8145" /><path
         id="circle8147"
         d="m 843.72747,-186.15297 c 0,3.53642 -2.86683,6.40325 -6.40325,6.40325 -3.53642,0 -6.40325,-2.86732 -6.40325,-6.40374 0,-3.53642 2.86683,-6.40276 6.40325,-6.40276 3.53642,0 6.40325,2.86683 6.40325,6.40325 z"
         style="opacity:1;fill:url(#linearGradient9359);fill-opacity:1;stroke:#232323;stroke-width:0.75;stroke-linecap:butt;stroke-linejoin:round;stroke-miterlimit:4;stroke-dasharray:none;stroke-opacity:1" /><circle
         style="opacity:1;fill:url(#linearGradient9357);fill-opacity:1;stroke:#232323;stroke-width:0.75;stroke-linecap:butt;stroke-linejoin:round;stroke-miterlimit:4;stroke-dasharray:none;stroke-opacity:1"
         id="circle8149"
         cx="837.32422"
         cy="-138.56387"
         r="7.5337067" /></g></g></svg>