<svg xmlns="http://www.w3.org/2000/svg" xmlns:xlink="http://www.w3.org/1999/xlink" viewBox="0 0 77 36" fill="#fff" fill-rule="evenodd" stroke="#000" stroke-linecap="round" stroke-linejoin="round"><use xlink:href="#A" x=".5" y=".5"/><symbol id="A" overflow="visible"><g stroke="none" fill-rule="nonzero"><path d="M43.155 18.045c4.56-.12 8.4 3.42 8.595 7.815.18 4.38-3.36 8.025-7.92 8.145-4.575.105-8.415-3.345-8.595-7.74-.195-4.395 3.345-8.1 7.92-8.22h0zM70.62 24.63c2.31-.045 4.29 1.77 4.38 4.08.105 2.37-1.71 4.29-4.02 4.35-2.325.045-4.365-1.77-4.455-4.14-.105-2.31 1.77-4.23 4.095-4.29h0z" fill="#7c8b38"/><path d="M70.71 26.715c1.095-.03 2.07.855 2.1 1.905.045 1.11-.855 1.965-1.935 1.995-1.155.03-2.07-.78-2.115-1.905-.045-1.035.78-1.965 1.95-1.995h0z"/><path d="M65.355 13.185c.885-1.14.975-2.745.66-4.905-.525-.345-1.245-.465-1.545-.66s-.03-.825-.21-1.455l3.69-.09.15 7.035c-.645.09-2.1.12-2.745.075h0z" fill="#7c8b38"/><path d="M43.095 22.02c2.25-.06 4.125 1.5 4.2 3.45.09 2.025-1.65 3.66-3.9 3.72s-4.125-1.5-4.2-3.525c-.09-1.95 1.665-3.585 3.9-3.645h0z"/><g fill="#7c8b38"><path d="M73.68 13.11l-15.6-.24L56.595 0l-21.45.525.345 4.515 4.065.18.3 7.17c-1.665.06-11.13 2.31-10.455 9.69l3.12-.075c2.37-.465 10.29-12.315 20.895 1.86l20.7-.87-.435-9.885zm-29.46-2.265l-.285-6.9 7.83-.195.285 6.9-7.83.195zM.975 12.675l.795-1.245.855-1.2.375.495-.93 1.035-.9 1.125-.195-.21zM4.26 8.34l1.725-1.65 1.92-1.47.51 1.335-1.89 1.14L4.68 9.12l-.42-.78zm5.685-4.335l2.04-.93 2.205-.72.3 2.13-2.025.45-2.1.72-.42-1.65zm6.51-2.1l2.16-.195h2.295l-.18 2.76-2.04-.225-2.175.015-.06-2.355zm6.78.015l.675.135c.405.09.945.18 1.47.315a24.42 24.42 0 0 1 1.53.54 10.91 10.91 0 0 1 .69.27l-.825 3.105s-.24-.075-.615-.21a23.55 23.55 0 0 1-1.335-.495c-1.05-.3-2.1-.66-2.1-.66l.51-3zm6.51 2.385a53.03 53.03 0 0 0 1.905 1.32 57.23 57.23 0 0 1 1.89 1.62l-.9 1.845s-.975-.495-1.905-1.02c-1.02-.465-2.025-.975-2.025-.975l1.035-2.79zm5.52 4.77l.27.36.6.81.585.84.255.39-.15.255-.36-.225-.795-.51-.78-.525-.345-.24.72-1.155z"/><path d="M0 23.01l.63-1.38.705-1.35.42.42-.795 1.2-.75 1.275L0 23.01zm2.715-4.92l1.515-1.965 1.71-1.815.675 1.215L4.89 17.01l-1.65 1.77-.525-.69zm5.1-5.37L9.72 11.4l2.1-1.14.555 2.055-1.95.825-1.995 1.11-.615-1.53zm6.165-3.33l2.115-.615 2.28-.435.15 2.76-2.04.165-2.145.435-.36-2.31zm6.705-1.275h.675l1.5.03 1.59.24.72.135-.435 3.225-.63-.09-1.38-.24-2.16-.24.12-3.06zm6.72 1.095l2.04.93 2.07 1.245-.66 1.995-2.01-.645-2.13-.57.69-2.955zm6.045 3.66l.315.315.69.69.675.705.3.33-.12.27-.39-.15-.84-.345-.825-.375-.375-.165.57-1.275zM1.635 34.485l.405-1.515.48-1.5.48.3-.585 1.38-.54 1.44-.24-.105zM3.51 28.98l1.17-2.295 1.395-2.205.855 1.02-1.455 1.89-1.335 2.145-.63-.555zm4.155-6.525l1.65-1.755 1.875-1.635.87 1.875-1.785 1.29-1.77 1.575-.84-1.35zm5.52-4.8l1.98-1.125 2.16-.99.585 2.67-1.965.66-2.025.96-.735-2.175zm6.36-2.925l.66-.165 1.47-.345 1.59-.165.72-.06.09 3.27-.63.06-1.38.105-2.16.3-.36-3zm6.765-.585l2.145.405 2.22.705-.33 2.115-2.07-.135c-1.08 0-2.175-.03-2.175-.03l.21-3.06h0zm6.495 2.085l.36.225.78.495.78.525.345.255-.075.3-.405-.045-.885-.135-.87-.15-.39-.075.36-1.395z"/></g></g></symbol></svg>